<svg width="18" height="18" viewBox="0 0 18 18" fill="none" xmlns="http://www.w3.org/2000/svg">
<path d="M16.5 0H1.5C1.10218 0 0.720644 0.158035 0.43934 0.43934C0.158035 0.720644 0 1.10218 0 1.5V16.5C0 16.8978 0.158035 17.2794 0.43934 17.5607C0.720644 17.842 1.10218 18 1.5 18H16.5C16.8978 18 17.2794 17.842 17.5607 17.5607C17.842 17.2794 18 16.8978 18 16.5V1.5C18 1.10218 17.842 0.720644 17.5607 0.43934C17.2794 0.158035 16.8978 0 16.5 0ZM16.5 16.5H1.5V12L5.25 8.25L9.4425 12.4425C9.72354 12.7219 10.1037 12.8787 10.5 12.8787C10.8963 12.8787 11.2765 12.7219 11.5575 12.4425L12.75 11.25L16.5 15V16.5ZM16.5 12.8775L13.8075 10.185C13.5265 9.90562 13.1463 9.74881 12.75 9.74881C12.3537 9.74881 11.9735 9.90562 11.6925 10.185L10.5 11.3775L6.3075 7.185C6.02646 6.90562 5.64628 6.74881 5.25 6.74881C4.85372 6.74881 4.47354 6.90562 4.1925 7.185L1.5 9.8775V1.5H16.5V12.8775Z" fill="#717171"/>
</svg>
