<svg width="22" height="20" viewBox="0 0 22 20" fill="none" xmlns="http://www.w3.org/2000/svg">
<path d="M4.3998 3.9C4.3998 3.18392 4.68427 2.49716 5.19062 1.99081C5.69697 1.48446 6.38372 1.2 7.0998 1.2C7.81589 1.2 8.50265 1.48446 9.00899 1.99081C9.51534 2.49716 9.7998 3.18392 9.7998 3.9C9.7998 4.61608 9.51534 5.30284 9.00899 5.80919C8.50265 6.31554 7.81589 6.6 7.0998 6.6C6.38372 6.6 5.69697 6.31554 5.19062 5.80919C4.68427 5.30284 4.3998 4.61608 4.3998 3.9ZM7.0998 0C6.06546 0 5.07348 0.410892 4.34209 1.14228C3.6107 1.87368 3.1998 2.86566 3.1998 3.9C3.1998 4.93434 3.6107 5.92632 4.34209 6.65772C5.07348 7.38911 6.06546 7.8 7.0998 7.8C8.13415 7.8 9.12613 7.38911 9.85752 6.65772C10.5889 5.92632 10.9998 4.93434 10.9998 3.9C10.9998 2.86566 10.5889 1.87368 9.85752 1.14228C9.12613 0.410892 8.13415 0 7.0998 0ZM0.799805 11.4C0.799805 10.7635 1.05266 10.153 1.50275 9.70294C1.95284 9.25286 2.56329 9 3.1998 9H10.9998C11.4177 8.99966 11.8285 9.10845 12.1914 9.3156C11.8586 9.5924 11.5554 9.8984 11.2818 10.2336C11.1895 10.2113 11.0948 10.2 10.9998 10.2H3.1998C2.88155 10.2 2.57632 10.3264 2.35128 10.5515C2.12623 10.7765 1.9998 11.0817 1.9998 11.4V11.4936L2.0082 11.5932C2.07332 12.1684 2.27852 12.7189 2.6058 13.1964C3.1902 14.0412 4.4154 15 7.0998 15C8.24461 15 9.1242 14.826 9.80221 14.5596C9.8126 14.9796 9.8606 15.3876 9.94621 15.7836C9.171 16.044 8.23381 16.2 7.0998 16.2C4.0842 16.2 2.4594 15.096 1.6182 13.8792C1.17528 13.2339 0.899062 12.4889 0.814205 11.7108C0.807359 11.641 0.802557 11.5709 0.799805 11.5008V11.4ZM14.5998 4.8C14.5998 4.32261 14.7894 3.86477 15.127 3.52721C15.4646 3.18964 15.9224 3 16.3998 3C16.8772 3 17.335 3.18964 17.6726 3.52721C18.0102 3.86477 18.1998 4.32261 18.1998 4.8C18.1998 5.27739 18.0102 5.73523 17.6726 6.07279C17.335 6.41036 16.8772 6.6 16.3998 6.6C15.9224 6.6 15.4646 6.41036 15.127 6.07279C14.7894 5.73523 14.5998 5.27739 14.5998 4.8ZM16.3998 1.8C15.6042 1.8 14.8411 2.11607 14.2785 2.67868C13.7159 3.24129 13.3998 4.00435 13.3998 4.8C13.3998 5.59565 13.7159 6.35871 14.2785 6.92132C14.8411 7.48393 15.6042 7.8 16.3998 7.8C17.1955 7.8 17.9585 7.48393 18.5211 6.92132C19.0837 6.35871 19.3998 5.59565 19.3998 4.8C19.3998 4.00435 19.0837 3.24129 18.5211 2.67868C17.9585 2.11607 17.1955 1.8 16.3998 1.8ZM21.7998 14.4C21.7998 15.8322 21.2309 17.2057 20.2182 18.2184C19.2055 19.2311 17.832 19.8 16.3998 19.8C14.9676 19.8 13.5941 19.2311 12.5814 18.2184C11.5687 17.2057 10.9998 15.8322 10.9998 14.4C10.9998 12.9678 11.5687 11.5943 12.5814 10.5816C13.5941 9.56893 14.9676 9 16.3998 9C17.832 9 19.2055 9.56893 20.2182 10.5816C21.2309 11.5943 21.7998 12.9678 21.7998 14.4ZM16.9998 12C16.9998 11.8409 16.9366 11.6883 16.8241 11.5757C16.7115 11.4632 16.5589 11.4 16.3998 11.4C16.2407 11.4 16.0881 11.4632 15.9755 11.5757C15.863 11.6883 15.7998 11.8409 15.7998 12V13.8H13.9998C13.8407 13.8 13.6881 13.8632 13.5755 13.9757C13.463 14.0883 13.3998 14.2409 13.3998 14.4C13.3998 14.5591 13.463 14.7117 13.5755 14.8243C13.6881 14.9368 13.8407 15 13.9998 15H15.7998V16.8C15.7998 16.9591 15.863 17.1117 15.9755 17.2243C16.0881 17.3368 16.2407 17.4 16.3998 17.4C16.5589 17.4 16.7115 17.3368 16.8241 17.2243C16.9366 17.1117 16.9998 16.9591 16.9998 16.8V15H18.7998C18.9589 15 19.1115 14.9368 19.2241 14.8243C19.3366 14.7117 19.3998 14.5591 19.3998 14.4C19.3998 14.2409 19.3366 14.0883 19.2241 13.9757C19.1115 13.8632 18.9589 13.8 18.7998 13.8H16.9998V12Z" fill="#8C8C8E"/>
</svg>
