<svg width="24" height="24" viewBox="0 0 24 24" fill="none" xmlns="http://www.w3.org/2000/svg">
<g id="ic:outline-build">
<path id="Vector" d="M22.6117 18.99L13.5317 9.90997C14.4617 7.56997 13.9817 4.80997 12.0917 2.90997C9.79167 0.609971 6.21167 0.399971 3.66167 2.25997L7.50167 6.10997L6.08167 7.51997L2.25167 3.68997C0.39167 6.22997 0.601671 9.81997 2.90167 12.11C4.76167 13.97 7.47167 14.46 9.79167 13.59L18.9017 22.7C19.2917 23.09 19.9217 23.09 20.3117 22.7L22.6117 20.4C23.0117 20.02 23.0117 19.39 22.6117 18.99ZM19.6117 20.59L10.1517 11.13C9.54167 11.58 8.86167 11.85 8.15167 11.95C6.79167 12.15 5.36167 11.74 4.32167 10.7C3.37167 9.75997 2.93167 8.49997 3.00167 7.25997L6.09167 10.35L10.3317 6.10997L7.24167 3.01997C8.48167 2.94997 9.73167 3.38997 10.6817 4.32997C11.1932 4.84058 11.5732 5.46762 11.7892 6.15733C12.0051 6.84703 12.0506 7.57883 11.9217 8.28997C11.7968 9.00661 11.4943 9.68049 11.0417 10.25L20.4917 19.7L19.6117 20.59Z" fill="#FF4D00"/>
</g>
</svg>
