<svg width="24" height="24" viewBox="0 0 24 24" fill="none" xmlns="http://www.w3.org/2000/svg">
<g id="fluent:camera-add-48-regular">
<path id="Vector" d="M10.2575 3.5C9.87855 3.50001 9.5065 3.60136 9.1799 3.79354C8.8533 3.98572 8.58403 4.26174 8.4 4.593L7.757 5.75H5.875C5.1125 5.75 4.38124 6.0529 3.84207 6.59207C3.3029 7.13124 3 7.8625 3 8.625V17.125C3 17.8875 3.3029 18.6188 3.84207 19.1579C4.38124 19.6971 5.1125 20 5.875 20H11.498C11.33 19.5972 11.2034 19.1784 11.12 18.75H5.875C5.44402 18.75 5.0307 18.5788 4.72595 18.274C4.42121 17.9693 4.25 17.556 4.25 17.125V8.625C4.25 8.19402 4.42121 7.7807 4.72595 7.47595C5.0307 7.17121 5.44402 7 5.875 7H8.4925L9.4925 5.2C9.5683 5.06359 9.6792 4.94993 9.81371 4.87081C9.94822 4.79168 10.1014 4.74997 10.2575 4.75H13.7425C13.8986 4.74997 14.0518 4.79168 14.1863 4.87081C14.3208 4.94993 14.4317 5.06359 14.5075 5.2L15.5075 7H18.125C18.556 7 18.9693 7.17121 19.274 7.47595C19.5788 7.7807 19.75 8.19402 19.75 8.625V11.4C20.191 11.5625 20.61 11.772 21 12.022V8.625C21 7.8625 20.6971 7.13124 20.1579 6.59207C19.6188 6.0529 18.8875 5.75 18.125 5.75H16.243L15.6 4.593C15.416 4.26174 15.1467 3.98572 14.8201 3.79354C14.4935 3.60136 14.1214 3.50001 13.7425 3.5H10.2575ZM12 8.5C12.8381 8.49999 13.6551 8.76314 14.3356 9.25233C15.0162 9.74153 15.5259 10.4321 15.793 11.2265C15.3855 11.337 14.994 11.4865 14.623 11.67C14.477 11.2093 14.2121 10.7953 13.8551 10.4696C13.4981 10.1438 13.0616 9.91794 12.5895 9.81463C12.1174 9.71132 11.6264 9.73423 11.166 9.88108C10.7056 10.0279 10.292 10.2935 9.96687 10.6511C9.64177 11.0086 9.41663 11.4455 9.31414 11.9178C9.21164 12.3901 9.23541 12.881 9.38305 13.3412C9.53069 13.8013 9.79699 14.2145 10.1551 14.539C10.5132 14.8634 10.9506 15.0878 11.423 15.1895C11.276 15.5755 11.1645 15.9795 11.093 16.397C10.1356 16.1754 9.29324 15.6092 8.72665 14.8062C8.16005 14.0033 7.90886 13.0199 8.02099 12.0436C8.13312 11.0673 8.60073 10.1664 9.33461 9.51285C10.0685 8.85928 11.0173 8.49874 12 8.5ZM23 17.5C23 20.5375 20.5375 23 17.5 23C14.4625 23 12 20.5375 12 17.5C12 14.4625 14.4625 12 17.5 12C20.5375 12 23 14.4625 23 17.5ZM18 14.5C18 14.3674 17.9473 14.2402 17.8536 14.1464C17.7598 14.0527 17.6326 14 17.5 14C17.3674 14 17.2402 14.0527 17.1464 14.1464C17.0527 14.2402 17 14.3674 17 14.5V17H14.5C14.3674 17 14.2402 17.0527 14.1464 17.1464C14.0527 17.2402 14 17.3674 14 17.5C14 17.6326 14.0527 17.7598 14.1464 17.8536C14.2402 17.9473 14.3674 18 14.5 18H17V20.5C17 20.6326 17.0527 20.7598 17.1464 20.8536C17.2402 20.9473 17.3674 21 17.5 21C17.6326 21 17.7598 20.9473 17.8536 20.8536C17.9473 20.7598 18 20.6326 18 20.5V18H20.5C20.6326 18 20.7598 17.9473 20.8536 17.8536C20.9473 17.7598 21 17.6326 21 17.5C21 17.3674 20.9473 17.2402 20.8536 17.1464C20.7598 17.0527 20.6326 17 20.5 17H18V14.5Z" fill="black"/>
</g>
</svg>
