<svg width="16" height="17" viewBox="0 0 16 17" fill="none" xmlns="http://www.w3.org/2000/svg">
<path d="M2.83333 12.04C2.75261 12.0414 2.67276 12.0232 2.6006 11.987C2.52844 11.9509 2.46611 11.8977 2.41894 11.8322C2.37177 11.7667 2.34117 11.6908 2.32974 11.6108C2.31831 11.5309 2.32641 11.4494 2.35333 11.3733L3.18666 8.62666C3.01624 8.15847 2.92609 7.66487 2.92 7.16666C2.91868 6.5916 3.03436 6.02228 3.26 5.49333C3.53352 4.84189 3.96265 4.26748 4.50978 3.82044C5.05691 3.3734 5.70534 3.06738 6.39823 2.92919C7.09112 2.79101 7.80733 2.82488 8.48409 3.02784C9.16085 3.2308 9.7775 3.59665 10.28 4.09333C10.6699 4.48948 10.982 4.95533 11.2 5.46666C11.4215 5.9944 11.5356 6.561 11.5356 7.13333C11.5356 7.70566 11.4215 8.27226 11.2 8.8C10.982 9.31133 10.6699 9.77718 10.28 10.1733C9.69541 10.7569 8.95578 11.1606 8.14877 11.3367C7.34175 11.5127 6.50117 11.4537 5.72666 11.1667L2.98 12.02C2.93222 12.0332 2.88289 12.0399 2.83333 12.04ZM7.22666 3.83333C6.7846 3.83204 6.34687 3.9205 5.94 4.09333C5.15177 4.42598 4.52163 5.04896 4.18 5.83333C4.00856 6.2418 3.92026 6.68034 3.92026 7.12333C3.92026 7.56632 4.00856 8.00486 4.18 8.41333C4.21971 8.52318 4.21971 8.64348 4.18 8.75333L3.56666 10.7533L5.56666 10.14C5.67652 10.1003 5.79681 10.1003 5.90666 10.14C6.71617 10.4762 7.62553 10.48 8.43782 10.1506C9.25012 9.82117 9.89997 9.18507 10.2467 8.38C10.4417 7.88133 10.5138 7.34301 10.4568 6.8106C10.3998 6.27818 10.2153 5.76733 9.91904 5.3213C9.62278 4.87526 9.22342 4.50717 8.75476 4.24816C8.28611 3.98915 7.76195 3.84686 7.22666 3.83333Z" fill="#AEAEAE"/>
<path d="M13.1668 14.1667C13.1181 14.1732 13.0688 14.1732 13.0201 14.1667L10.2734 13.3333C9.24155 13.723 8.09907 13.6992 7.08429 13.2669C6.06951 12.8347 5.26078 12.0274 4.82677 11.0133C4.79711 10.9533 4.78014 10.8879 4.77693 10.821C4.77372 10.7542 4.78433 10.6873 4.80811 10.6248C4.83188 10.5622 4.86831 10.5052 4.91511 10.4574C4.96191 10.4095 5.01808 10.3718 5.08011 10.3467C5.14043 10.3189 5.20566 10.3035 5.27201 10.3013C5.33836 10.299 5.40449 10.31 5.46655 10.3336C5.52861 10.3572 5.58534 10.3929 5.63346 10.4386C5.68157 10.4844 5.72009 10.5392 5.74677 10.6C5.90524 10.9777 6.13114 11.3233 6.41344 11.62C6.88088 12.0823 7.47459 12.3961 8.1199 12.5218C8.76521 12.6476 9.43329 12.5797 10.0401 12.3267C10.15 12.287 10.2703 12.287 10.3801 12.3267L12.3801 12.94L11.7668 10.94C11.7271 10.8302 11.7271 10.7099 11.7668 10.6C11.9396 10.1931 12.0281 9.7554 12.0268 9.31334C12.0284 8.87876 11.9437 8.44818 11.7778 8.04653C11.6119 7.64487 11.3679 7.2801 11.0601 6.97334C10.9252 6.80291 10.7758 6.64453 10.6134 6.50001C10.5552 6.46504 10.5046 6.41855 10.4649 6.36338C10.4252 6.30821 10.3971 6.24552 10.3825 6.17915C10.3678 6.11277 10.3668 6.04411 10.3796 5.97734C10.3924 5.91057 10.4186 5.84711 10.4567 5.79083C10.4948 5.73456 10.544 5.68664 10.6013 5.65002C10.6586 5.6134 10.7227 5.58884 10.7898 5.57784C10.8569 5.56685 10.9255 5.56964 10.9915 5.58606C11.0574 5.60248 11.1193 5.63218 11.1734 5.67334C11.4119 5.82728 11.6351 6.00364 11.8401 6.20001C12.2322 6.59441 12.5445 7.06069 12.7601 7.57334C12.9863 8.10447 13.102 8.67607 13.1001 9.25334C13.0987 9.76501 13.0085 10.2725 12.8334 10.7533L13.6668 13.5C13.6937 13.5761 13.7018 13.6576 13.6904 13.7375C13.6789 13.8174 13.6483 13.8934 13.6012 13.9589C13.554 14.0244 13.4917 14.0775 13.4195 14.1137C13.3473 14.1499 13.2675 14.1681 13.1868 14.1667H13.1668Z" fill="#AEAEAE"/>
</svg>
