<svg xmlns="http://www.w3.org/2000/svg" data-name="Layer 1" viewBox="0 -10 100 125" x="0px" y="0" style='fill: rgb(33, 53, 71)'>
    <path d="M82.84,5.82a2.83,2.83,0,0,0-4,0L34.32,50.37a2.87,2.87,0,0,0-.68,1.08L27.78,68.66a2.81,2.81,0,0,0,3.56,3.57l17.21-5.87a3,3,0,0,0,1.08-.67L94.18,21.14a2.83,2.83,0,0,0,0-4ZM46.11,61.25,35,65.05l3.8-11.16L72.9,19.75l7.35,7.35ZM84.23,23.13l-7.36-7.36,4-4,7.36,7.36Z"/>
    <path d="M23.42,10.63H50A2.82,2.82,0,0,0,50,5H23.42A18.44,18.44,0,0,0,5,23.42V76.58A18.44,18.44,0,0,0,23.42,95H76.58A18.44,18.44,0,0,0,95,76.58V50a2.82,2.82,0,0,0-5.63,0V76.58a12.82,12.82,0,0,1-12.79,12.8H23.42a12.82,12.82,0,0,1-12.8-12.8V23.42A12.82,12.82,0,0,1,23.42,10.63Z"/>
</svg>
