<svg width="21" height="21" viewBox="0 0 21 21" fill="none" xmlns="http://www.w3.org/2000/svg">
<path d="M0.5 10C0.5 6.229 0.5 4.343 1.672 3.172C2.843 2 4.729 2 8.5 2H12.5C16.271 2 18.157 2 19.328 3.172C20.5 4.343 20.5 6.229 20.5 10V12C20.5 15.771 20.5 17.657 19.328 18.828C18.157 20 16.271 20 12.5 20H8.5C4.729 20 2.843 20 1.672 18.828C0.5 17.657 0.5 15.771 0.5 12V10Z" stroke="#6B6B6E"/>
<path d="M5.5 2V0.5M15.5 2V0.5M1 7H20" stroke="#6B6B6E" stroke-linecap="round"/>
<path d="M16.5 15C16.5 15.2652 16.3946 15.5196 16.2071 15.7071C16.0196 15.8946 15.7652 16 15.5 16C15.2348 16 14.9804 15.8946 14.7929 15.7071C14.6054 15.5196 14.5 15.2652 14.5 15C14.5 14.7348 14.6054 14.4804 14.7929 14.2929C14.9804 14.1054 15.2348 14 15.5 14C15.7652 14 16.0196 14.1054 16.2071 14.2929C16.3946 14.4804 16.5 14.7348 16.5 15ZM16.5 11C16.5 11.2652 16.3946 11.5196 16.2071 11.7071C16.0196 11.8946 15.7652 12 15.5 12C15.2348 12 14.9804 11.8946 14.7929 11.7071C14.6054 11.5196 14.5 11.2652 14.5 11C14.5 10.7348 14.6054 10.4804 14.7929 10.2929C14.9804 10.1054 15.2348 10 15.5 10C15.7652 10 16.0196 10.1054 16.2071 10.2929C16.3946 10.4804 16.5 10.7348 16.5 11ZM11.5 15C11.5 15.2652 11.3946 15.5196 11.2071 15.7071C11.0196 15.8946 10.7652 16 10.5 16C10.2348 16 9.98043 15.8946 9.79289 15.7071C9.60536 15.5196 9.5 15.2652 9.5 15C9.5 14.7348 9.60536 14.4804 9.79289 14.2929C9.98043 14.1054 10.2348 14 10.5 14C10.7652 14 11.0196 14.1054 11.2071 14.2929C11.3946 14.4804 11.5 14.7348 11.5 15ZM11.5 11C11.5 11.2652 11.3946 11.5196 11.2071 11.7071C11.0196 11.8946 10.7652 12 10.5 12C10.2348 12 9.98043 11.8946 9.79289 11.7071C9.60536 11.5196 9.5 11.2652 9.5 11C9.5 10.7348 9.60536 10.4804 9.79289 10.2929C9.98043 10.1054 10.2348 10 10.5 10C10.7652 10 11.0196 10.1054 11.2071 10.2929C11.3946 10.4804 11.5 10.7348 11.5 11ZM6.5 15C6.5 15.2652 6.39464 15.5196 6.20711 15.7071C6.01957 15.8946 5.76522 16 5.5 16C5.23478 16 4.98043 15.8946 4.79289 15.7071C4.60536 15.5196 4.5 15.2652 4.5 15C4.5 14.7348 4.60536 14.4804 4.79289 14.2929C4.98043 14.1054 5.23478 14 5.5 14C5.76522 14 6.01957 14.1054 6.20711 14.2929C6.39464 14.4804 6.5 14.7348 6.5 15ZM6.5 11C6.5 11.2652 6.39464 11.5196 6.20711 11.7071C6.01957 11.8946 5.76522 12 5.5 12C5.23478 12 4.98043 11.8946 4.79289 11.7071C4.60536 11.5196 4.5 11.2652 4.5 11C4.5 10.7348 4.60536 10.4804 4.79289 10.2929C4.98043 10.1054 5.23478 10 5.5 10C5.76522 10 6.01957 10.1054 6.20711 10.2929C6.39464 10.4804 6.5 10.7348 6.5 11Z" fill="#6B6B6E"/>
</svg>
