<svg width="138" height="138" viewBox="0 0 138 138" fill="none" xmlns="http://www.w3.org/2000/svg">
<path d="M123.548 114.82C115.025 100.093 101.645 89.7593 86.0989 85.3767C93.6573 81.5346 99.7015 75.2587 103.257 67.5612C106.812 59.8636 107.671 51.193 105.696 42.9474C103.72 34.7018 99.0254 27.3618 92.368 22.111C85.7106 16.8602 77.4788 14.0045 68.9998 14.0045C60.5209 14.0045 52.2891 16.8602 45.6317 22.111C38.9743 27.3618 34.2793 34.7018 32.3039 42.9474C30.3284 51.193 31.1876 59.8636 34.7429 67.5612C38.2982 75.2587 44.3423 81.5346 51.9008 85.3767C36.3542 89.7539 22.9747 100.088 14.4521 114.82C14.2181 115.188 14.0609 115.6 13.9901 116.031C13.9194 116.461 13.9364 116.901 14.0401 117.325C14.1439 117.749 14.3323 118.147 14.594 118.496C14.8558 118.845 15.1854 119.137 15.563 119.356C15.9407 119.574 16.3586 119.714 16.7916 119.766C17.2247 119.819 17.6639 119.783 18.0828 119.662C18.5017 119.54 18.8918 119.335 19.2294 119.059C19.5671 118.783 19.8454 118.441 20.0476 118.055C30.403 100.163 48.6987 89.4844 68.9998 89.4844C89.3009 89.4844 107.597 100.163 117.952 118.055C118.154 118.441 118.433 118.783 118.77 119.059C119.108 119.335 119.498 119.54 119.917 119.662C120.336 119.783 120.775 119.819 121.208 119.766C121.641 119.714 122.059 119.574 122.437 119.356C122.814 119.137 123.144 118.845 123.406 118.496C123.667 118.147 123.856 117.749 123.96 117.325C124.063 116.901 124.08 116.461 124.01 116.031C123.939 115.6 123.782 115.188 123.548 114.82ZM37.7342 51.75C37.7342 45.5663 39.5679 39.5214 43.0034 34.3798C46.4389 29.2382 51.3219 25.2308 57.035 22.8644C62.748 20.4979 69.0345 19.8788 75.0994 21.0852C81.1644 22.2916 86.7354 25.2693 91.108 29.6419C95.4805 34.0145 98.4583 39.5855 99.6647 45.6504C100.871 51.7153 100.252 58.0018 97.8855 63.7149C95.5191 69.4279 91.5117 74.3109 86.3701 77.7464C81.2285 81.182 75.1836 83.0157 68.9998 83.0157C60.7107 83.0057 52.764 79.7084 46.9027 73.8471C41.0415 67.9859 37.7442 60.0391 37.7342 51.75Z" fill="#717171"/>
<circle cx="116.5" cy="111.5" r="11.5" fill="#87E750"/>
</svg>
