<svg width="52" height="52" viewBox="0 0 52 52" fill="none" xmlns="http://www.w3.org/2000/svg">
<path d="M28.333 3.83333V9.66666C28.333 15.1663 28.333 17.9173 30.041 19.6253C31.749 21.3333 34.5 21.3333 39.9997 21.3333H49.333" stroke="#8C8C8E" stroke-width="3"/>
<path d="M17.8332 41.1667V29.5M17.8332 29.5L13.1665 33.875M17.8332 29.5L22.4998 33.875" stroke="#8C8C8E" stroke-width="3" stroke-linecap="round" stroke-linejoin="round"/>
<path d="M4.41651 21.3333C4.41651 20.8692 4.23213 20.4241 3.90394 20.0959C3.57575 19.7677 3.13064 19.5833 2.66651 19.5833C2.20238 19.5833 1.75726 19.7677 1.42907 20.0959C1.10088 20.4241 0.916507 20.8692 0.916507 21.3333H4.41651ZM47.5832 30.6667C47.5832 31.1308 47.7675 31.5759 48.0957 31.9041C48.4239 32.2323 48.869 32.4167 49.3332 32.4167C49.7973 32.4167 50.2424 32.2323 50.5706 31.9041C50.8988 31.5759 51.0832 31.1308 51.0832 30.6667H47.5832ZM1.16151 11.8297C1.11633 12.2916 1.25652 12.7526 1.55123 13.1112C1.84595 13.4698 2.27104 13.6967 2.73301 13.7418C3.19497 13.787 3.65596 13.6468 4.01456 13.3521C4.37316 13.0574 4.6 12.6323 4.64517 12.1703L1.16151 11.8297ZM50.8382 40.1703C50.8605 39.9416 50.8376 39.7107 50.7708 39.4908C50.7039 39.2709 50.5944 39.0663 50.4484 38.8888C50.3025 38.7112 50.123 38.5641 49.9203 38.4559C49.7175 38.3477 49.4954 38.2805 49.2667 38.2582C49.0379 38.2358 48.807 38.2587 48.5871 38.3256C48.3672 38.3924 48.1627 38.502 47.9851 38.6479C47.6265 38.9426 47.3997 39.3677 47.3545 39.8297L50.8382 40.1703ZM30.6665 47.5833H21.3332V51.0833H30.6665V47.5833ZM4.41651 30.6667V21.3333H0.916507V30.6667H4.41651ZM47.5832 29.647V30.6667H51.0832V29.647H47.5832ZM32.7455 8.759L41.9832 17.0727L44.3235 14.4687L35.0882 6.155L32.7455 8.759ZM51.0832 29.647C51.0832 25.706 51.1182 23.2093 50.1265 20.9787L46.9275 22.4043C47.5482 23.7997 47.5832 25.398 47.5832 29.647H51.0832ZM41.9832 17.0727C45.1402 19.9147 46.3068 21.0113 46.9275 22.4043L50.1265 20.9787C49.1325 18.7457 47.2542 17.1053 44.3235 14.4687L41.9832 17.0727ZM21.4032 4.41666C25.0945 4.41666 26.4875 4.44467 27.7265 4.92067L28.9818 1.654C26.9938 0.888665 24.8285 0.916665 21.4032 0.916665V4.41666ZM35.0882 6.15733C32.5542 3.87767 30.9698 2.41466 28.9818 1.654L27.7288 4.92067C28.9702 5.39667 30.0155 6.302 32.7455 8.759L35.0882 6.15733ZM21.3332 47.5833C16.8835 47.5833 13.7242 47.5787 11.3232 47.2567C8.97817 46.9417 7.62484 46.349 6.63784 45.362L4.16451 47.8353C5.90984 49.5853 8.12417 50.3577 10.8588 50.7263C13.5422 51.088 16.9838 51.0833 21.3332 51.0833V47.5833ZM0.916507 30.6667C0.916507 35.016 0.91184 38.4553 1.27351 41.141C1.64217 43.8757 2.41684 46.09 4.16217 47.8377L6.63551 45.3643C5.65084 44.375 5.05817 43.0217 4.74317 40.6743C4.42117 38.278 4.41651 35.1163 4.41651 30.6667H0.916507ZM30.6665 51.0833C35.0158 51.0833 38.4552 51.088 41.1408 50.7263C43.8755 50.3577 46.0898 49.583 47.8375 47.8377L45.3642 45.3643C44.3748 46.349 43.0215 46.9417 40.6742 47.2567C38.2778 47.5787 35.1162 47.5833 30.6665 47.5833V51.0833ZM21.4032 0.916665C17.0282 0.916665 13.5725 0.911998 10.8775 1.27366C8.13117 1.64233 5.90984 2.417 4.16217 4.16233L6.63551 6.63566C7.62484 5.651 8.98051 5.05833 11.3418 4.74333C13.7522 4.42133 16.9302 4.41666 21.4032 4.41666V0.916665ZM4.64517 12.1703C4.92751 9.291 5.53651 7.737 6.63784 6.638L4.16451 4.16466C2.21384 6.11066 1.47417 8.64233 1.16151 11.8297L4.64517 12.1703ZM47.3545 39.8297C47.0722 42.709 46.4608 44.263 45.3618 45.362L47.8352 47.8353C49.7858 45.8893 50.5255 43.3577 50.8382 40.1703L47.3545 39.8297Z" fill="#8C8C8E"/>
</svg>
