<svg width="29" height="24" viewBox="0 0 29 24" fill="none" xmlns="http://www.w3.org/2000/svg">
<g id="material-symbols:edit-outline">
<path id="Vector" d="M6.01713 19H7.70188L18.0811 10.375L16.3964 8.975L6.01713 17.6V19ZM23.2256 8.925L18.1112 4.725L19.7959 3.325C20.2572 2.94167 20.824 2.75 21.4963 2.75C22.1686 2.75 22.735 2.94167 23.1955 3.325L24.8803 4.725C25.3416 5.10833 25.5822 5.571 25.6023 6.113C25.6224 6.655 25.4017 7.11733 24.9404 7.5L23.2256 8.925ZM21.4807 10.4L8.72476 21H3.61035V16.75L16.3663 6.15L21.4807 10.4ZM17.2387 9.675L16.3964 8.975L18.0811 10.375L17.2387 9.675Z" fill="black"/>
</g>
</svg>
