<svg width="22" height="22" viewBox="0 0 22 22" fill="none" xmlns="http://www.w3.org/2000/svg">
<path d="M3.72787 15.137C2.18287 13.591 1.40987 12.819 1.12287 11.816C0.834866 10.813 1.08087 9.748 1.57287 7.619L1.85587 6.391C2.26887 4.599 2.47587 3.703 3.08887 3.089C3.70287 2.476 4.59887 2.269 6.39087 1.856L7.61887 1.572C9.74887 1.081 10.8129 0.835001 11.8159 1.122C12.8189 1.41 13.5909 2.183 15.1359 3.728L16.9659 5.558C19.6569 8.248 20.9999 9.592 20.9999 11.262C20.9999 12.933 19.6559 14.277 16.9669 16.966C14.2769 19.656 12.9329 21 11.2619 21C9.59187 21 8.24687 19.656 5.55787 16.967L3.72787 15.137Z" stroke="#8C8C8E"/>
<path d="M9.02096 9.29321C9.80201 8.51216 9.80201 7.24583 9.02096 6.46478C8.23991 5.68373 6.97358 5.68374 6.19253 6.46478C5.41149 7.24583 5.41148 8.51216 6.19253 9.29321C6.97358 10.0743 8.23991 10.0743 9.02096 9.29321Z" stroke="#8C8C8E"/>
<path d="M10.542 17.5L17.521 10.52" stroke="#8C8C8E" stroke-linecap="round"/>
</svg>
