<svg width="108" height="28" viewBox="0 0 108 28" fill="none" xmlns="http://www.w3.org/2000/svg">
<path d="M7.84609 13.4941V1.34941L3.79785 1.28515L3.92637 0.33414H13.6807L13.5522 1.2466L9.63245 1.34941V13.4941H7.84609Z" fill="black"/>
<path d="M23.6427 7.94225H21.7921V13.4941H20.0057V0.359843C20.5455 0.317005 21.1409 0.282734 21.7921 0.257031C22.4432 0.231328 23.0815 0.218476 23.7069 0.218476C24.4695 0.218476 25.1335 0.299869 25.6989 0.462655C26.2644 0.625442 26.7313 0.861053 27.0998 1.16949C27.4682 1.47793 27.7423 1.85491 27.9222 2.30043C28.1022 2.74595 28.1921 3.25144 28.1921 3.81691C28.1921 4.36524 28.115 4.8536 27.9608 5.28198C27.8152 5.7018 27.6181 6.07021 27.3696 6.38722C27.1212 6.70422 26.8256 6.9741 26.4829 7.19686C26.1487 7.41962 25.7975 7.60383 25.4291 7.74948C25.8232 8.42633 26.2001 9.07319 26.56 9.69006C26.9284 10.2984 27.2968 10.8381 27.6652 11.3094C28.0336 11.772 28.4063 12.1404 28.7833 12.4146C29.1603 12.6888 29.563 12.8258 29.9913 12.8258H30.1199V13.4042C29.9314 13.4727 29.6915 13.5284 29.4002 13.5712C29.1089 13.6141 28.8133 13.6355 28.5134 13.6355C28.085 13.6355 27.7209 13.5798 27.421 13.4684C27.1212 13.3485 26.8256 13.13 26.5343 12.813C26.2515 12.4874 25.9431 12.0419 25.609 11.4764C25.2748 10.911 24.8636 10.1784 24.3752 9.27881L23.6427 7.94225ZM22.3447 7.02979C23.15 7.02979 23.8012 6.98267 24.2981 6.88843C24.8036 6.79418 25.1892 6.66138 25.4548 6.49003C25.5747 6.41292 25.6861 6.31011 25.7889 6.18159C25.8917 6.05308 25.9774 5.89029 26.0459 5.69323C26.123 5.48761 26.1787 5.24343 26.213 4.96069C26.2558 4.66939 26.2773 4.3224 26.2773 3.91972C26.2773 3.41423 26.2044 2.98584 26.0588 2.63457C25.9131 2.27472 25.7032 1.98342 25.4291 1.76066C25.1549 1.5379 24.8207 1.37511 24.4266 1.2723C24.0411 1.16949 23.5998 1.11808 23.1029 1.11808C22.8545 1.11808 22.6403 1.12665 22.4603 1.14379C22.2804 1.15235 22.0577 1.16949 21.7921 1.19519V7.02979H22.3447Z" fill="black"/>
<path d="M36.2521 13.4941V0.33414H38.0385V13.4941H36.2521Z" fill="black"/>
<path d="M48.2446 7.55671L48.6173 7.49245C49.08 7.41534 49.5169 7.31681 49.9282 7.19686C50.348 7.06835 50.7121 6.87986 51.0206 6.63139C51.329 6.38293 51.5732 6.05308 51.7531 5.64183C51.9416 5.22201 52.0359 4.67796 52.0359 4.00968C52.0359 3.51275 51.9587 3.08437 51.8045 2.72453C51.6503 2.36468 51.4361 2.0691 51.1619 1.83777C50.8878 1.60644 50.5536 1.43509 50.1595 1.32371C49.7654 1.21233 49.3327 1.15664 48.8615 1.15664C48.6131 1.15664 48.3989 1.16521 48.2189 1.18234C48.039 1.19091 47.8163 1.20804 47.5507 1.23375V13.4941H45.7643V0.398398C46.3041 0.355559 46.8995 0.321289 47.5507 0.295585C48.2018 0.269882 48.8401 0.257031 49.4655 0.257031C50.2281 0.257031 50.8921 0.342708 51.4575 0.514062C52.023 0.685416 52.4899 0.929595 52.8583 1.2466C53.2268 1.55504 53.5009 1.9363 53.6808 2.39039C53.8608 2.83591 53.9507 3.3414 53.9507 3.90687C53.9507 4.49804 53.8436 5.05066 53.6294 5.56472C53.4152 6.07878 53.0811 6.5243 52.627 6.90128C52.1815 7.27826 51.6117 7.57812 50.9178 7.80089C50.2323 8.01508 49.4141 8.12217 48.4631 8.12217H48.3475L48.2446 7.55671Z" fill="black"/>
<path d="M68.218 13.4941L66.573 8.67479L61.5095 8.73905L59.736 13.4941H58.4251L63.6428 0.449804L65.185 0L70.0686 13.4941H68.218ZM66.3031 7.81374L64.1184 1.6707L61.8308 7.81374H66.3031Z" fill="black"/>
<path d="M89.3094 13.4941L88.2299 3.45706L83.6033 13.4941H82.7809L77.7559 3.45706L76.8691 13.4941H75.6997L77.0491 0.244179H78.1286L83.4877 11.0523L88.5126 0.244179H89.605L91.0701 13.4941H89.3094Z" fill="black"/>
<path d="M98.2819 13.4941V0.33414H100.068V13.4941H98.2819Z" fill="black"/>
<path d="M27.8181 23.065V23.5323H25.9581V23.065H27.8181ZM26.5002 22.2051H27.0517V25.626C27.0517 25.7817 27.0743 25.8986 27.1195 25.9765C27.1662 26.0528 27.2254 26.1042 27.297 26.1307C27.3703 26.1556 27.4474 26.1681 27.5284 26.1681C27.5891 26.1681 27.639 26.165 27.6779 26.1587C27.7169 26.1509 27.748 26.1447 27.7714 26.14L27.8835 26.6354C27.8462 26.6494 27.794 26.6634 27.727 26.6775C27.66 26.693 27.5751 26.7008 27.4723 26.7008C27.3165 26.7008 27.1639 26.6673 27.0143 26.6004C26.8663 26.5334 26.7433 26.4313 26.6451 26.2943C26.5485 26.1572 26.5002 25.9843 26.5002 25.7755V22.2051Z" fill="black"/>
<path d="M29.3056 26.6541V23.065H29.8384V23.6071H29.8758C29.9412 23.4295 30.0596 23.2854 30.2309 23.1748C30.4023 23.0642 30.5954 23.0089 30.8104 23.0089C30.8509 23.0089 30.9015 23.0097 30.9623 23.0113C31.0231 23.0128 31.069 23.0152 31.1002 23.0183V23.5791C31.0815 23.5744 31.0386 23.5674 30.9716 23.558C30.9062 23.5471 30.8369 23.5417 30.7637 23.5417C30.5892 23.5417 30.4334 23.5783 30.2964 23.6515C30.1608 23.7232 30.0533 23.8229 29.9739 23.9506C29.896 24.0768 29.8571 24.2209 29.8571 24.3829V26.6541H29.3056Z" fill="black"/>
<path d="M33.468 26.7382C33.2406 26.7382 33.0342 26.6954 32.8488 26.6097C32.6634 26.5225 32.5162 26.3971 32.4072 26.2335C32.2981 26.0684 32.2436 25.869 32.2436 25.6353C32.2436 25.4297 32.2841 25.263 32.3651 25.1353C32.4461 25.006 32.5544 24.9047 32.6899 24.8315C32.8254 24.7583 32.975 24.7038 33.1385 24.6679C33.3037 24.6306 33.4696 24.601 33.6362 24.5792C33.8543 24.5511 34.0311 24.5301 34.1667 24.5161C34.3037 24.5005 34.4034 24.4748 34.4657 24.439C34.5296 24.4031 34.5616 24.3408 34.5616 24.252V24.2333C34.5616 24.0028 34.4985 23.8236 34.3723 23.6959C34.2477 23.5682 34.0584 23.5043 33.8045 23.5043C33.5412 23.5043 33.3348 23.5619 33.1853 23.6772C33.0357 23.7925 32.9306 23.9155 32.8698 24.0464L32.3464 23.8595C32.4399 23.6414 32.5645 23.4716 32.7203 23.3501C32.8776 23.227 33.049 23.1413 33.2343 23.093C33.4213 23.0432 33.6051 23.0183 33.7858 23.0183C33.9011 23.0183 34.0335 23.0323 34.183 23.0603C34.3341 23.0868 34.4798 23.1421 34.62 23.2262C34.7617 23.3104 34.8793 23.4373 34.9728 23.6071C35.0663 23.7769 35.113 24.0043 35.113 24.2894V26.6541H34.5616V26.1681H34.5335C34.4961 26.246 34.4338 26.3293 34.3466 26.4181C34.2593 26.5069 34.1433 26.5824 33.9984 26.6447C33.8535 26.7071 33.6767 26.7382 33.468 26.7382ZM33.5521 26.2428C33.7702 26.2428 33.954 26.2 34.1036 26.1143C34.2547 26.0287 34.3684 25.9181 34.4447 25.7825C34.5226 25.647 34.5616 25.5045 34.5616 25.3549V24.8502C34.5382 24.8782 34.4868 24.9039 34.4073 24.9273C34.3294 24.9491 34.2391 24.9686 34.1363 24.9857C34.035 25.0013 33.9361 25.0153 33.8395 25.0278C33.7445 25.0387 33.6674 25.048 33.6082 25.0558C33.4649 25.0745 33.3309 25.1049 33.2063 25.147C33.0832 25.1875 32.9835 25.249 32.9072 25.3316C32.8324 25.4126 32.795 25.5232 32.795 25.6634C32.795 25.855 32.8659 25.9998 33.0077 26.098C33.151 26.1946 33.3325 26.2428 33.5521 26.2428Z" fill="black"/>
<path d="M39.5838 23.065L38.2566 26.6541H37.6958L36.3686 23.065H36.9668L37.9575 25.9251H37.9949L38.9856 23.065H39.5838Z" fill="black"/>
<path d="M42.346 26.7289C42.0001 26.7289 41.7018 26.6525 41.451 26.4999C41.2018 26.3457 41.0094 26.1307 40.8739 25.855C40.7399 25.5777 40.6729 25.2552 40.6729 24.8876C40.6729 24.52 40.7399 24.1959 40.8739 23.9155C41.0094 23.6336 41.1979 23.4139 41.4393 23.2566C41.6824 23.0977 41.9659 23.0183 42.2899 23.0183C42.4768 23.0183 42.6614 23.0494 42.8437 23.1117C43.0259 23.1741 43.1918 23.2753 43.3414 23.4155C43.4909 23.5541 43.6101 23.738 43.6989 23.967C43.7877 24.1959 43.8321 24.4779 43.8321 24.8128V25.0465H41.0655V24.5698H43.2713C43.2713 24.3673 43.2308 24.1866 43.1498 24.0277C43.0703 23.8688 42.9566 23.7434 42.8086 23.6515C42.6622 23.5596 42.4893 23.5136 42.2899 23.5136C42.0702 23.5136 41.8802 23.5682 41.7197 23.6772C41.5608 23.7847 41.4386 23.9249 41.3529 24.0978C41.2672 24.2707 41.2244 24.4561 41.2244 24.6539V24.9717C41.2244 25.2428 41.2711 25.4725 41.3646 25.661C41.4596 25.848 41.5912 25.9905 41.7595 26.0886C41.9277 26.1852 42.1232 26.2335 42.346 26.2335C42.4908 26.2335 42.6217 26.2132 42.7385 26.1727C42.8569 26.1307 42.9589 26.0684 43.0446 25.9858C43.1303 25.9017 43.1965 25.7973 43.2432 25.6727L43.776 25.8223C43.7199 26.003 43.6257 26.1618 43.4933 26.2989C43.3608 26.4345 43.1973 26.5404 43.0026 26.6167C42.8078 26.6915 42.589 26.7289 42.346 26.7289Z" fill="black"/>
<path d="M45.8804 21.8686V26.6541H45.3289V21.8686H45.8804Z" fill="black"/>
<path d="M50.057 26.6541V23.065H50.6085V26.6541H50.057ZM50.3374 22.4668C50.2299 22.4668 50.1372 22.4302 50.0593 22.357C49.983 22.2838 49.9448 22.1958 49.9448 22.093C49.9448 21.9902 49.983 21.9021 50.0593 21.8289C50.1372 21.7557 50.2299 21.7191 50.3374 21.7191C50.4449 21.7191 50.5368 21.7557 50.6131 21.8289C50.691 21.9021 50.73 21.9902 50.73 22.093C50.73 22.1958 50.691 22.2838 50.6131 22.357C50.5368 22.4302 50.4449 22.4668 50.3374 22.4668Z" fill="black"/>
<path d="M52.8279 24.495V26.6541H52.2765V23.065H52.8092V23.6258H52.8559C52.9401 23.4435 53.0678 23.2971 53.2392 23.1865C53.4105 23.0744 53.6317 23.0183 53.9028 23.0183C54.1458 23.0183 54.3584 23.0681 54.5407 23.1678C54.7229 23.266 54.8647 23.4155 54.9659 23.6165C55.0672 23.8159 55.1178 24.0682 55.1178 24.3735V26.6541H54.5664V24.4109C54.5664 24.129 54.4932 23.9093 54.3467 23.752C54.2003 23.5931 53.9993 23.5136 53.7439 23.5136C53.5678 23.5136 53.4105 23.5518 53.2719 23.6281C53.1348 23.7045 53.0265 23.8159 52.9471 23.9623C52.8676 24.1087 52.8279 24.2863 52.8279 24.495Z" fill="black"/>
<path d="M58.1388 26.7289C57.8397 26.7289 57.5756 26.6533 57.3466 26.5022C57.1176 26.3496 56.9385 26.1346 56.8092 25.8573C56.6799 25.5785 56.6153 25.249 56.6153 24.8689C56.6153 24.4919 56.6799 24.1648 56.8092 23.8875C56.9385 23.6102 57.1184 23.396 57.349 23.2449C57.5795 23.0938 57.8459 23.0183 58.1481 23.0183C58.3818 23.0183 58.5664 23.0572 58.7019 23.1351C58.839 23.2114 58.9433 23.2987 59.015 23.3968C59.0882 23.4934 59.1451 23.5728 59.1856 23.6352H59.2323V21.8686H59.7838V26.6541H59.251V26.1026H59.1856C59.1451 26.1681 59.0874 26.2506 59.0127 26.3503C58.9379 26.4485 58.8312 26.5365 58.6925 26.6144C58.5539 26.6907 58.3693 26.7289 58.1388 26.7289ZM58.2135 26.2335C58.4347 26.2335 58.6217 26.1759 58.7743 26.0606C58.927 25.9438 59.043 25.7825 59.1225 25.5769C59.2019 25.3697 59.2416 25.1306 59.2416 24.8596C59.2416 24.5916 59.2027 24.3572 59.1248 24.1562C59.0469 23.9537 58.9317 23.7964 58.779 23.6842C58.6263 23.5705 58.4378 23.5136 58.2135 23.5136C57.9799 23.5136 57.7851 23.5736 57.6294 23.6936C57.4751 23.812 57.3591 23.9732 57.2812 24.1773C57.2049 24.3798 57.1667 24.6072 57.1667 24.8596C57.1667 25.115 57.2057 25.3471 57.2835 25.5559C57.363 25.7631 57.4798 25.9282 57.634 26.0512C57.7898 26.1727 57.983 26.2335 58.2135 26.2335Z" fill="black"/>
<path d="M63.7902 25.1867V23.065H64.3416V26.6541H63.7902V26.0466H63.7528C63.6687 26.2288 63.5378 26.3838 63.3602 26.5116C63.1826 26.6377 62.9583 26.7008 62.6873 26.7008C62.4629 26.7008 62.2636 26.6518 62.0891 26.5536C61.9146 26.4539 61.7775 26.3044 61.6778 26.105C61.5781 25.904 61.5283 25.6509 61.5283 25.3456V23.065H62.0797V25.3082C62.0797 25.5699 62.153 25.7786 62.2994 25.9344C62.4474 26.0902 62.6359 26.1681 62.8648 26.1681C63.0019 26.1681 63.1413 26.133 63.2831 26.0629C63.4264 25.9928 63.5464 25.8853 63.6429 25.7405C63.7411 25.5956 63.7902 25.411 63.7902 25.1867Z" fill="black"/>
<path d="M68.5519 23.8688L68.0565 24.009C68.0254 23.9265 67.9794 23.8462 67.9187 23.7683C67.8595 23.6889 67.7785 23.6235 67.6756 23.5721C67.5728 23.5207 67.4412 23.495 67.2808 23.495C67.0611 23.495 66.8781 23.5456 66.7316 23.6468C66.5868 23.7465 66.5143 23.8735 66.5143 24.0277C66.5143 24.1648 66.5642 24.2731 66.6639 24.3525C66.7636 24.4319 66.9194 24.4982 67.1312 24.5511L67.664 24.682C67.9849 24.7599 68.224 24.879 68.3813 25.0395C68.5386 25.1984 68.6173 25.4032 68.6173 25.654C68.6173 25.8596 68.5581 26.0435 68.4397 26.2055C68.3229 26.3675 68.1593 26.4952 67.949 26.5887C67.7387 26.6821 67.4942 26.7289 67.2153 26.7289C66.8493 26.7289 66.5463 26.6494 66.3064 26.4905C66.0665 26.3316 65.9146 26.0995 65.8507 25.7942L66.3741 25.6634C66.424 25.8565 66.5182 26.0014 66.6569 26.098C66.7971 26.1946 66.9801 26.2428 67.206 26.2428C67.463 26.2428 67.6671 26.1883 67.8182 26.0793C67.9708 25.9687 68.0472 25.8363 68.0472 25.6821C68.0472 25.5574 68.0036 25.4531 67.9163 25.3689C67.8291 25.2833 67.6951 25.2194 67.5144 25.1773L66.9162 25.0371C66.5875 24.9592 66.3461 24.8385 66.1919 24.675C66.0392 24.5098 65.9629 24.3034 65.9629 24.0557C65.9629 23.8532 66.0197 23.6741 66.1335 23.5183C66.2487 23.3625 66.4053 23.2403 66.6031 23.1515C66.8025 23.0627 67.0284 23.0183 67.2808 23.0183C67.6359 23.0183 67.9148 23.0962 68.1173 23.2519C68.3213 23.4077 68.4662 23.6133 68.5519 23.8688Z" fill="black"/>
<path d="M71.6663 23.065V23.5323H69.8063V23.065H71.6663ZM70.3484 22.2051H70.8999V25.626C70.8999 25.7817 70.9225 25.8986 70.9676 25.9765C71.0144 26.0528 71.0736 26.1042 71.1452 26.1307C71.2184 26.1556 71.2955 26.1681 71.3765 26.1681C71.4373 26.1681 71.4871 26.165 71.5261 26.1587C71.565 26.1509 71.5962 26.1447 71.6196 26.14L71.7317 26.6354C71.6943 26.6494 71.6421 26.6634 71.5752 26.6775C71.5082 26.693 71.4233 26.7008 71.3205 26.7008C71.1647 26.7008 71.012 26.6673 70.8625 26.6004C70.7145 26.5334 70.5914 26.4313 70.4933 26.2943C70.3967 26.1572 70.3484 25.9843 70.3484 25.7755V22.2051Z" fill="black"/>
<path d="M73.1538 26.6541V23.065H73.6865V23.6071H73.7239C73.7894 23.4295 73.9077 23.2854 74.0791 23.1748C74.2505 23.0642 74.4436 23.0089 74.6586 23.0089C74.6991 23.0089 74.7497 23.0097 74.8105 23.0113C74.8712 23.0128 74.9172 23.0152 74.9483 23.0183V23.5791C74.9296 23.5744 74.8868 23.5674 74.8198 23.558C74.7544 23.5471 74.6851 23.5417 74.6119 23.5417C74.4374 23.5417 74.2816 23.5783 74.1445 23.6515C74.009 23.7232 73.9015 23.8229 73.8221 23.9506C73.7442 24.0768 73.7052 24.2209 73.7052 24.3829V26.6541H73.1538Z" fill="black"/>
<path d="M76.7244 28C76.631 28 76.5476 27.9922 76.4744 27.9766C76.4012 27.9626 76.3506 27.9486 76.3225 27.9346L76.4627 27.4486C76.5967 27.4828 76.7151 27.4953 76.8179 27.4859C76.9207 27.4766 77.0118 27.4306 77.0913 27.3481C77.1723 27.2671 77.2463 27.1354 77.3133 26.9532L77.4161 26.6728L76.0889 23.065H76.687L77.6778 25.9251H77.7152L78.7059 23.065H79.3041L77.7806 27.1775C77.712 27.3629 77.6271 27.5163 77.5259 27.6378C77.4246 27.7609 77.307 27.852 77.173 27.9112C77.0406 27.9704 76.8911 28 76.7244 28Z" fill="black"/>
<line x1="20.8364" y1="24.9608" x2="-0.00020413" y2="24.9608" stroke="black"/>
<line x1="107.473" y1="24.9608" x2="86.6365" y2="24.9608" stroke="black"/>
</svg>
