<svg width="31" height="31" viewBox="0 0 31 31" fill="none" xmlns="http://www.w3.org/2000/svg">
<g id="ic:baseline-apple">
<path id="Vector" d="M22.0231 26.1949C20.7573 27.422 19.3752 27.2282 18.0448 26.647C16.6368 26.0528 15.3452 26.027 13.8598 26.647C11.9998 27.4478 11.0181 27.2153 9.90725 26.1949C3.60392 19.6978 4.53392 9.80363 11.6898 9.44196C13.4335 9.53238 14.6477 10.3978 15.6681 10.4753C17.1923 10.1653 18.6518 9.27404 20.2793 9.39029C22.2298 9.54529 23.7023 10.3203 24.671 11.7153C20.641 14.1307 21.5968 19.4395 25.291 20.9249C24.5548 22.8624 23.5989 24.787 22.0102 26.2078L22.0231 26.1949ZM15.5389 9.36446C15.3452 6.48404 17.6831 4.10738 20.3698 3.87488C20.7443 7.20738 17.3473 9.68738 15.5389 9.36446Z" fill="#3083FF"/>
</g>
</svg>
