<svg width="11" height="11" viewBox="0 0 11 11" fill="none" xmlns="http://www.w3.org/2000/svg">
<g clip-path="url(#clip0_96_1110)">
<path d="M9.62509 9.62497L7.63455 7.63443M7.63455 7.63443C7.97504 7.29394 8.24513 6.88972 8.42941 6.44485C8.61368 5.99998 8.70852 5.52317 8.70852 5.04164C8.70852 4.56011 8.61368 4.0833 8.42941 3.63843C8.24514 3.19356 7.97504 2.78934 7.63455 2.44885C7.29406 2.10836 6.88984 1.83827 6.44497 1.65399C6.0001 1.46972 5.52329 1.37488 5.04176 1.37488C4.56024 1.37488 4.08342 1.46972 3.63855 1.65399C3.19368 1.83827 2.78946 2.10836 2.44897 2.44885C1.76132 3.1365 1.375 4.06915 1.375 5.04164C1.375 6.01412 1.76132 6.94678 2.44897 7.63443C3.13662 8.32208 4.06928 8.7084 5.04176 8.7084C6.01425 8.7084 6.9469 8.32208 7.63455 7.63443Z" stroke="#717171" stroke-linecap="round" stroke-linejoin="round"/>
</g>
<defs>
<clipPath id="clip0_96_1110">
<rect width="11" height="11" fill="white"/>
</clipPath>
</defs>
</svg>
