<svg width="40" height="40" viewBox="0 0 40 40" fill="none" xmlns="http://www.w3.org/2000/svg">
<rect width="40" height="40" rx="20" fill="#D55E04"/>
<path d="M8.91699 19.9998C8.91699 14.7755 8.91699 12.1622 10.5398 10.5393C12.1627 8.9165 14.7748 8.9165 20.0003 8.9165C25.2247 8.9165 27.838 8.9165 29.4608 10.5393C31.0837 12.1622 31.0837 14.7743 31.0837 19.9998C31.0837 25.2242 31.0837 27.8375 29.4608 29.4603C27.838 31.0832 25.2258 31.0832 20.0003 31.0832C14.776 31.0832 12.1627 31.0832 10.5398 29.4603C8.91699 27.8375 8.91699 25.2253 8.91699 19.9998Z" stroke="#F7F8FA" stroke-width="1.5" stroke-linecap="round" stroke-linejoin="round"/>
<path d="M26.426 13.583H26.4143M25.25 19.9997C25.25 21.3921 24.6969 22.7274 23.7123 23.712C22.7277 24.6966 21.3924 25.2497 20 25.2497C18.6076 25.2497 17.2723 24.6966 16.2877 23.712C15.3031 22.7274 14.75 21.3921 14.75 19.9997C14.75 18.6073 15.3031 17.2719 16.2877 16.2874C17.2723 15.3028 18.6076 14.7497 20 14.7497C21.3924 14.7497 22.7277 15.3028 23.7123 16.2874C24.6969 17.2719 25.25 18.6073 25.25 19.9997Z" stroke="#F7F8FA" stroke-width="1.5" stroke-linecap="round" stroke-linejoin="round"/>
</svg>
