<svg width="24" height="24" viewBox="0 0 24 24" fill="none" xmlns="http://www.w3.org/2000/svg">
<g id="gis:map-route" clip-path="url(#clip0_561_371)">
<path id="gisMapRoute0" fill-rule="evenodd" clip-rule="evenodd" d="M19.9481 0C18.2969 0 16.9006 1.1364 16.4971 2.66208L16.0529 2.45568C15.9736 2.41884 15.8873 2.39975 15.7999 2.39975C15.7125 2.39975 15.6262 2.41884 15.547 2.45568L8.19984 5.86872L0.85272 2.45592C0.761299 2.41346 0.660656 2.39472 0.560081 2.40143C0.459506 2.40814 0.362242 2.44007 0.277267 2.49429C0.192292 2.54851 0.122347 2.62326 0.0738874 2.71165C0.0254281 2.80003 1.69278e-05 2.8992 1.61821e-08 3V19.8689C-2.65471e-05 19.9833 0.0326506 20.0953 0.09418 20.1917C0.155709 20.2882 0.243526 20.365 0.34728 20.4132L7.94712 23.9434C8.02636 23.9802 8.11269 23.9993 8.20008 23.9993C8.28747 23.9993 8.3738 23.9802 8.45304 23.9434L15.8002 20.5306L23.1473 23.9434C23.545 24.1279 24 23.8378 24 23.3995V6.53064C24 6.41624 23.9673 6.30422 23.9058 6.20778C23.8443 6.11134 23.7565 6.0345 23.6527 5.98632L22.8775 5.62584L23.1202 5.21256C23.1754 5.11248 23.2193 5.00592 23.257 4.89696C23.4307 4.47338 23.5201 4.01993 23.52 3.56208C23.52 1.6044 21.9115 0 19.9481 0ZM19.9481 1.66872C21.0053 1.66872 21.846 2.50776 21.846 3.56208C21.846 4.61616 21.0053 5.45448 19.9481 5.45448C18.8909 5.45448 18.0502 4.61616 18.0502 3.56208C18.0502 2.50776 18.8909 1.66872 19.9481 1.66872ZM16.0682 3.786L16.3987 3.93984C16.4632 4.53955 16.6801 5.11277 17.0287 5.60496L19.5122 9.89856C19.8602 10.3531 20.0916 10.2667 20.3808 9.87456L22.2665 6.66504L22.8 6.9132V22.4592L16.1573 19.3735L16.103 9.85128C16.201 9.8724 16.2986 9.8928 16.3968 9.91608L16.6176 8.98224C16.4448 8.94139 16.2714 8.90354 16.0973 8.86872L16.0685 3.786H16.0682ZM15.3487 3.87096L15.3763 8.7516C15.1285 8.71759 14.8791 8.69508 14.6292 8.68416L14.5937 9.6432C14.8548 9.6528 15.1181 9.68112 15.3821 9.71952L15.4373 19.3757L8.55504 22.5732L8.46648 7.06824L15.3487 3.87096ZM1.2 3.94032L7.746 6.98112L7.83504 22.5684L1.2 19.4858V3.94032ZM13.5703 8.74968C13.2398 8.80896 12.9017 8.9148 12.5868 9.09792C12.2101 9.31602 11.9004 9.63308 11.6911 10.0147L12.5316 10.4784C12.6568 10.2504 12.8414 10.0606 13.0658 9.92904L13.0673 9.92808L13.0687 9.92712C13.2624 9.81432 13.493 9.73848 13.74 9.69432L13.5703 8.74968ZM17.5702 9.23712L17.2982 10.1573C17.899 10.3349 18.4939 10.5389 19.0855 10.7597L19.4213 9.86016C18.8136 9.6336 18.1973 9.4224 17.5702 9.23712ZM11.3297 11.0602L11.3225 11.0981L11.3218 11.1014C11.202 11.7809 11.2147 12.4495 11.2416 13.085L12.2006 13.0442C12.1745 12.4277 12.169 11.831 12.2671 11.2711L12.2729 11.2411L11.3297 11.0602ZM12.2578 13.9906L11.3002 14.0554C11.3434 14.6959 11.3894 15.3238 11.3878 15.9394L12.3478 15.9418C12.3497 15.277 12.301 14.627 12.2578 13.9906ZM11.34 16.8442C11.3136 17.0729 11.2742 17.2954 11.2166 17.509L11.2162 17.5102L11.2157 17.5121C11.1317 17.8325 10.9903 18.1291 10.793 18.3614L11.5243 18.983C11.8334 18.6194 12.0295 18.1915 12.1435 17.7586L12.144 17.7571C12.216 17.4893 12.2628 17.2195 12.2935 16.9531L11.34 16.8442ZM3.23568 17.7797L2.80464 18.6374C3.39984 18.9367 4.01544 19.1842 4.63536 19.3982L4.94856 18.4908C4.35936 18.2875 3.78408 18.0552 3.23568 17.7797ZM5.83632 18.7668L5.58096 19.6922C6.216 19.8677 6.8688 20.0071 7.536 20.0822L7.64304 19.1282C7.038 19.0603 6.43464 18.9322 5.83632 18.7668ZM10.1902 18.8345C9.71208 19.0793 9.13488 19.1698 8.54136 19.177L8.55336 20.137C9.23352 20.1288 9.96072 20.0304 10.6274 19.6889L10.1902 18.8345Z" fill="#FF4D00"/>
</g>
<defs>
<clipPath id="clip0_561_371">
<rect width="24" height="24" fill="white"/>
</clipPath>
</defs>
</svg>
