<svg width="21" height="17" viewBox="0 0 21 17" fill="none" xmlns="http://www.w3.org/2000/svg">
<path d="M3.8998 4.1C3.8998 3.38391 4.18427 2.69716 4.69062 2.19081C5.19696 1.68446 5.88372 1.4 6.5998 1.4C7.31589 1.4 8.00264 1.68446 8.50899 2.19081C9.01534 2.69716 9.2998 3.38391 9.2998 4.1C9.2998 4.81608 9.01534 5.50284 8.50899 6.00919C8.00264 6.51553 7.31589 6.8 6.5998 6.8C5.88372 6.8 5.19696 6.51553 4.69062 6.00919C4.18427 5.50284 3.8998 4.81608 3.8998 4.1ZM6.5998 0.199997C5.56546 0.199997 4.57348 0.610889 3.84209 1.34228C3.1107 2.07367 2.6998 3.06565 2.6998 4.1C2.6998 5.13434 3.1107 6.12632 3.84209 6.85771C4.57348 7.58911 5.56546 8 6.5998 8C7.63415 8 8.62613 7.58911 9.35752 6.85771C10.0889 6.12632 10.4998 5.13434 10.4998 4.1C10.4998 3.06565 10.0889 2.07367 9.35752 1.34228C8.62613 0.610889 7.63415 0.199997 6.5998 0.199997ZM13.4242 14.174C14.0698 14.438 14.8822 14.6 15.8998 14.6C18.157 14.6 19.405 13.7984 20.0626 12.8792C20.4064 12.3972 20.6216 11.8355 20.6878 11.2472C20.6937 11.1926 20.6977 11.1377 20.6998 11.0828V11C20.6998 10.7636 20.6532 10.5296 20.5628 10.3112C20.4723 10.0928 20.3397 9.89435 20.1726 9.72721C20.0054 9.56006 19.807 9.42747 19.5886 9.33701C19.3702 9.24656 19.1362 9.2 18.8998 9.2H13.3438C13.6318 9.548 13.8478 9.9548 13.9738 10.4H18.8998C19.0589 10.4 19.2115 10.4632 19.3241 10.5757C19.4366 10.6883 19.4998 10.8409 19.4998 11V11.0648L19.4938 11.1248C19.4487 11.5055 19.3084 11.8687 19.0858 12.1808C18.6934 12.7316 17.8414 13.4 15.8998 13.4C15.0214 13.4 14.3662 13.2632 13.8754 13.0628C13.777 13.3988 13.6342 13.778 13.4242 14.174ZM0.299805 11.6C0.299805 10.9635 0.552661 10.353 1.00275 9.90294C1.45284 9.45285 2.06328 9.2 2.6998 9.2H10.4998C11.1363 9.2 11.7468 9.45285 12.1969 9.90294C12.6469 10.353 12.8998 10.9635 12.8998 11.6V11.7008L12.8974 11.7488L12.8854 11.9108C12.8004 12.6885 12.5241 13.433 12.0814 14.078C11.2402 15.296 9.6154 16.4 6.5998 16.4C3.5842 16.4 1.9594 15.296 1.1182 14.0792C0.675283 13.4339 0.399062 12.6889 0.314205 11.9108C0.307359 11.841 0.302557 11.7709 0.299805 11.7008V11.6ZM1.4998 11.672V11.6936L1.5082 11.7932C1.57332 12.3684 1.77852 12.9189 2.1058 13.3964C2.6902 14.2412 3.9154 15.2 6.5998 15.2C9.2842 15.2 10.5094 14.2412 11.0938 13.3964C11.4211 12.9189 11.6263 12.3684 11.6914 11.7932C11.6962 11.7476 11.6986 11.7144 11.6986 11.6936L11.6998 11.6732V11.6C11.6998 11.2817 11.5734 10.9765 11.3483 10.7515C11.1233 10.5264 10.8181 10.4 10.4998 10.4H2.6998C2.38154 10.4 2.07632 10.5264 1.85128 10.7515C1.62623 10.9765 1.4998 11.2817 1.4998 11.6V11.672ZM14.0998 5C14.0998 4.52261 14.2894 4.06477 14.627 3.7272C14.9646 3.38964 15.4224 3.2 15.8998 3.2C16.3772 3.2 16.835 3.38964 17.1726 3.7272C17.5102 4.06477 17.6998 4.52261 17.6998 5C17.6998 5.47739 17.5102 5.93522 17.1726 6.27279C16.835 6.61035 16.3772 6.8 15.8998 6.8C15.4224 6.8 14.9646 6.61035 14.627 6.27279C14.2894 5.93522 14.0998 5.47739 14.0998 5ZM15.8998 2C15.1042 2 14.3411 2.31607 13.7785 2.87868C13.2159 3.44129 12.8998 4.20435 12.8998 5C12.8998 5.79565 13.2159 6.55871 13.7785 7.12132C14.3411 7.68393 15.1042 8 15.8998 8C16.6955 8 17.4585 7.68393 18.0211 7.12132C18.5837 6.55871 18.8998 5.79565 18.8998 5C18.8998 4.20435 18.5837 3.44129 18.0211 2.87868C17.4585 2.31607 16.6955 2 15.8998 2Z" fill="#8C8C8E"/>
</svg>
