<svg width="20" height="20" viewBox="0 0 20 20" fill="none" xmlns="http://www.w3.org/2000/svg">
<path d="M17.9036 16.6407C16.6685 14.5063 14.7294 13.0086 12.4763 12.3735C13.5717 11.8166 14.4477 10.9071 14.9629 9.7915C15.4782 8.67591 15.6027 7.4193 15.3164 6.22429C15.0301 5.02927 14.3497 3.96551 13.3849 3.20452C12.42 2.44353 11.227 2.02966 9.99816 2.02966C8.76933 2.02966 7.57631 2.44353 6.61147 3.20452C5.64663 3.96551 4.96621 5.02927 4.67991 6.22429C4.39361 7.4193 4.51813 8.67591 5.03339 9.7915C5.54865 10.9071 6.42461 11.8166 7.52004 12.3735C5.26691 13.0078 3.32785 14.5055 2.0927 16.6407C2.05878 16.694 2.03601 16.7537 2.02575 16.816C2.01549 16.8784 2.01795 16.9422 2.03299 17.0036C2.04803 17.0651 2.07534 17.1228 2.11327 17.1734C2.1512 17.2239 2.19896 17.2663 2.2537 17.298C2.30843 17.3296 2.369 17.3498 2.43176 17.3575C2.49452 17.3651 2.55817 17.3599 2.61888 17.3423C2.6796 17.3247 2.73613 17.295 2.78506 17.255C2.834 17.2149 2.87433 17.1654 2.90363 17.1094C4.40441 14.5164 7.05598 12.9688 9.99816 12.9688C12.9404 12.9688 15.5919 14.5164 17.0927 17.1094C17.122 17.1654 17.1623 17.2149 17.2113 17.255C17.2602 17.295 17.3167 17.3247 17.3774 17.3423C17.4382 17.3599 17.5018 17.3651 17.5646 17.3575C17.6273 17.3498 17.6879 17.3296 17.7426 17.298C17.7974 17.2663 17.8451 17.2239 17.8831 17.1734C17.921 17.1228 17.9483 17.0651 17.9633 17.0036C17.9784 16.9422 17.9808 16.8784 17.9706 16.816C17.9603 16.7537 17.9375 16.694 17.9036 16.6407ZM5.46691 7.50003C5.46691 6.60383 5.73267 5.72776 6.23057 4.9826C6.72847 4.23744 7.43615 3.65666 8.26413 3.3137C9.09211 2.97074 10.0032 2.881 10.8822 3.05584C11.7611 3.23068 12.5685 3.66224 13.2022 4.29595C13.8359 4.92966 14.2675 5.73705 14.4423 6.61602C14.6172 7.495 14.5275 8.40608 14.1845 9.23406C13.8415 10.062 13.2608 10.7697 12.5156 11.2676C11.7704 11.7655 10.8944 12.0313 9.99816 12.0313C8.79685 12.0298 7.64515 11.552 6.79569 10.7025C5.94623 9.85304 5.46836 8.70134 5.46691 7.50003Z" fill="#717171"/>
</svg>
