<svg width="16" height="17" viewBox="0 0 16 17" fill="none" xmlns="http://www.w3.org/2000/svg">
<g id="ic:outline-share">
<path id="Vector" d="M12 11.22C11.4933 11.22 11.04 11.42 10.6933 11.7333L5.94 8.96668C5.97333 8.81334 6 8.66001 6 8.50001C6 8.34001 5.97333 8.18668 5.94 8.03334L10.64 5.29334C11 5.62668 11.4733 5.83334 12 5.83334C13.1067 5.83334 14 4.94001 14 3.83334C14 2.72668 13.1067 1.83334 12 1.83334C10.8933 1.83334 10 2.72668 10 3.83334C10 3.99334 10.0267 4.14668 10.06 4.30001L5.36 7.04001C5 6.70668 4.52667 6.50001 4 6.50001C2.89333 6.50001 2 7.39334 2 8.50001C2 9.60668 2.89333 10.5 4 10.5C4.52667 10.5 5 10.2933 5.36 9.96001L10.1067 12.7333C10.0733 12.8733 10.0533 13.02 10.0533 13.1667C10.0533 14.24 10.9267 15.1133 12 15.1133C13.0733 15.1133 13.9467 14.24 13.9467 13.1667C13.9467 12.0933 13.0733 11.22 12 11.22ZM12 3.16668C12.3667 3.16668 12.6667 3.46668 12.6667 3.83334C12.6667 4.20001 12.3667 4.50001 12 4.50001C11.6333 4.50001 11.3333 4.20001 11.3333 3.83334C11.3333 3.46668 11.6333 3.16668 12 3.16668ZM4 9.16668C3.63333 9.16668 3.33333 8.86668 3.33333 8.50001C3.33333 8.13334 3.63333 7.83334 4 7.83334C4.36667 7.83334 4.66667 8.13334 4.66667 8.50001C4.66667 8.86668 4.36667 9.16668 4 9.16668ZM12 13.8467C11.6333 13.8467 11.3333 13.5467 11.3333 13.18C11.3333 12.8133 11.6333 12.5133 12 12.5133C12.3667 12.5133 12.6667 12.8133 12.6667 13.18C12.6667 13.5467 12.3667 13.8467 12 13.8467Z" fill="#AEAEAE"/>
</g>
</svg>
