<svg width="28" height="32" viewBox="0 0 28 32" fill="none" xmlns="http://www.w3.org/2000/svg">
<path d="M10.0003 16C10.0003 17.1051 9.56134 18.1649 8.77994 18.9463C7.99854 19.7277 6.93873 20.1667 5.83366 20.1667C4.72859 20.1667 3.66878 19.7277 2.88738 18.9463C2.10598 18.1649 1.66699 17.1051 1.66699 16C1.66699 14.8949 2.10598 13.8351 2.88738 13.0537C3.66878 12.2723 4.72859 11.8333 5.83366 11.8333C6.93873 11.8333 7.99854 12.2723 8.77994 13.0537C9.56134 13.8351 10.0003 14.8949 10.0003 16Z" stroke="#6B6B6E" stroke-width="2"/>
<path d="M18.3333 6.83333L10 12.6667M18.3333 25.1667L10 19.3333" stroke="#6B6B6E" stroke-width="2" stroke-linecap="round"/>
<path d="M26.6673 26.8333C26.6673 27.9384 26.2283 28.9982 25.4469 29.7796C24.6655 30.561 23.6057 31 22.5007 31C21.3956 31 20.3358 30.561 19.5544 29.7796C18.773 28.9982 18.334 27.9384 18.334 26.8333C18.334 25.7283 18.773 24.6685 19.5544 23.8871C20.3358 23.1057 21.3956 22.6667 22.5007 22.6667C23.6057 22.6667 24.6655 23.1057 25.4469 23.8871C26.2283 24.6685 26.6673 25.7283 26.6673 26.8333ZM26.6673 5.16667C26.6673 6.27174 26.2283 7.33154 25.4469 8.11294C24.6655 8.89435 23.6057 9.33333 22.5007 9.33333C21.3956 9.33333 20.3358 8.89435 19.5544 8.11294C18.773 7.33154 18.334 6.27174 18.334 5.16667C18.334 4.0616 18.773 3.00179 19.5544 2.22039C20.3358 1.43899 21.3956 1 22.5007 1C23.6057 1 24.6655 1.43899 25.4469 2.22039C26.2283 3.00179 26.6673 4.0616 26.6673 5.16667Z" stroke="#6B6B6E" stroke-width="2"/>
</svg>
