<svg width="86" height="15" viewBox="0 0 86 15" fill="none" xmlns="http://www.w3.org/2000/svg">
<path d="M79 0.5L80.5716 5.33688H85.6574L81.5429 8.32624L83.1145 13.1631L79 10.1738L74.8855 13.1631L76.4571 8.32624L72.3426 5.33688H77.4284L79 0.5Z" fill="#D9D9D9"/>
<path d="M61 0.5L62.5716 5.33688H67.6574L63.5429 8.32624L65.1145 13.1631L61 10.1738L56.8855 13.1631L58.4571 8.32624L54.3426 5.33688H59.4284L61 0.5Z" fill="#FEF10D"/>
<path d="M43 0.5L44.5716 5.33688H49.6574L45.5429 8.32624L47.1145 13.1631L43 10.1738L38.8855 13.1631L40.4571 8.32624L36.3426 5.33688H41.4284L43 0.5Z" fill="#FEF10D"/>
<path d="M25 0.5L26.5716 5.33688H31.6574L27.5429 8.32624L29.1145 13.1631L25 10.1738L20.8855 13.1631L22.4571 8.32624L18.3426 5.33688H23.4284L25 0.5Z" fill="#FEF10D"/>
<path d="M7 0.5L8.5716 5.33688H13.6574L9.5429 8.32624L11.1145 13.1631L7 10.1738L2.8855 13.1631L4.4571 8.32624L0.342604 5.33688H5.4284L7 0.5Z" fill="#FEF10D"/>
</svg>
