<svg width="26" height="36" xmlns="http://www.w3.org/2000/svg" fill="none">

 <g>
  <title>Layer 1</title>
  <path fill="white" id="svg_1" stroke-linejoin="round" stroke-linecap="round" stroke-width="2" stroke="#6B6B6E" d="m20.5,1.75l-15,0c-0.99456,0 -1.94839,0.39509 -2.65165,1.09835c-0.70326,0.70326 -1.09835,1.65709 -1.09835,2.65165l0,28.75l11.25,-10l11.25,10l0,-28.75c0,-0.99456 -0.3951,-1.94839 -1.0983,-2.65165c-0.7033,-0.70326 -1.6571,-1.09835 -2.6517,-1.09835z"/>
  <path d="m12.07285,14.75497c0,0.13245 0.04243,0.26832 0,0.5298c-0.06709,0.41344 -0.13245,0.7947 -0.13245,1.45695c0,0.92715 -0.20313,1.67769 0.39735,2.78146c0.40529,0.74499 0.82869,1.11508 1.45695,1.3245c0.25131,0.08377 0.66225,0 1.0596,0c0.2649,0 0.8607,-0.38914 0.92715,-1.19205c0.05462,-0.66 0,-1.58941 0,-2.51656c0,-1.19205 -0.04249,-2.10948 -0.2649,-3.17881c-0.16406,-0.78878 -0.555,-1.57371 -0.7947,-1.98676c-0.14865,-0.25616 -0.39735,-0.5298 -0.5298,-0.66225c-0.2649,-0.2649 -0.43614,-0.35856 -0.5298,-0.2649c-0.28097,0.28097 -0.2649,0.66225 -0.2649,0.92715c0,0.5298 0,1.0596 0,1.45695c0,0.5298 0,1.0596 0,1.5894c0,0.13245 0.19322,0.70286 0.2649,0.5298c0.10137,-0.24474 0,-0.66225 0,-0.7947c0,-0.2649 0,-0.5298 0,-0.7947c0,-0.13245 -0.14253,-0.18314 -0.2649,-0.13245c-0.17305,0.07168 -0.13245,0.66225 -0.13245,1.3245c0,0.7947 0,1.5894 0,1.98675c0,0.2649 0.09185,0.72302 0.2649,0.7947c0.3671,0.15206 0.5298,0 0.7947,0c0.13245,0 0.34249,0.18731 0.5298,0c0.18731,-0.18731 0,-0.66225 0,-1.0596c0,-0.5298 0.09129,-0.67288 0,-1.0596c-0.06805,-0.28825 -0.14253,-0.47911 -0.2649,-0.5298c-0.17305,-0.07168 -0.19685,0.50646 -0.2649,0.7947c-0.12172,0.51563 0,0.7947 0,1.3245c0,0.39735 0,0.7947 0,0.92715c0,0.2649 0.0137,0.40976 0.13245,0.2649c0.30277,-0.36932 0.32931,-0.63891 0.39735,-0.92715c0.09129,-0.38672 0,-0.7947 0,-0.92715c0,-0.39735 -0.03879,-0.43615 -0.13245,-0.5298c-0.09366,-0.09366 -0.2649,0.2649 -0.2649,0.7947c0,0.92715 0,1.58941 0,2.11921c0,0.66225 -0.10137,0.94732 0,1.19205c0.07168,0.17305 0.32567,0.17306 0.39735,0c0.05069,-0.12237 0,-0.5298 0,-0.92715c0,-0.13245 -0.12891,-0.63182 0,-0.66225c0.28824,-0.06804 0.19781,0.64617 0.2649,1.0596c0.08486,0.52296 0.13245,0.92715 0.2649,1.19205c0.2649,0.5298 0.35675,0.73393 0.5298,0.66225c0.12237,-0.05069 0,-0.66225 0,-1.0596c0,-0.2649 0.13662,-0.58438 -0.13245,-1.0596c-0.09229,-0.163 -0.3741,-0.27786 -0.5298,-0.5298c-0.06963,-0.11267 -0.21004,-0.31976 -0.39735,-0.13245c-0.09366,0.09366 0,0.5298 0,0.92715c0,0.39735 0,0.66225 0,1.0596c0,0.2649 0,0.5298 0,1.0596c0,0.2649 0,0.5298 0,0.66225c0,0.2649 0.09173,0.55444 0.2649,0.7947c0.10952,0.15196 0,0.13245 -0.13245,-0.13245c-0.13245,-0.2649 -0.2649,-0.39735 -0.2649,-0.66225c0,-0.13245 0.13245,-0.13245 0.39735,-0.13245c0.2649,0 0.35675,0.19322 0.5298,0.2649c0.12237,0.05069 0.32567,0.09185 0.39735,0.2649c0.05069,0.12237 0.13245,0.2649 0.2649,0.39735c0.13245,0.13245 0.14253,0.21421 0.2649,0.2649c0.17305,0.07168 0.08176,0.27498 0.13245,0.39735c0.07168,0.17305 0.28468,0.19527 0.39735,0.2649c0.25194,0.1557 0.21422,0.27498 0.2649,0.39735c0.07168,0.17305 0.32567,0.2243 0.39735,0.39735c0.05069,0.12237 0.13245,0.13245 0.2649,0.2649c0.13245,0.13245 0.17124,0.30369 0.2649,0.39735c0.09366,0.09366 0.17125,0.17124 0.2649,0.2649c0.09366,0.09366 0.13245,0.13245 -0.13245,0c-0.2649,-0.13245 -0.62871,-0.44654 -1.19205,-0.7947c-0.25194,-0.1557 -0.45812,-0.35675 -0.5298,-0.5298c-0.05069,-0.12237 -0.03879,-0.30369 -0.13245,-0.39735c-0.09366,-0.09366 -0.2649,-0.2649 -0.2649,-0.39735c0,-0.13245 -0.3037,-0.30369 -0.39735,-0.39735c-0.09366,-0.09366 -0.13245,-0.13245 -0.2649,-0.13245c-0.13245,0 -0.02334,0.19686 0.2649,0.2649c0.25782,0.06086 0.26845,0.10202 0.39735,0.13245c0.28824,0.06804 0.28468,0.19527 0.39735,0.2649c0.25194,0.1557 0.39735,0.5298 0.39735,0.66225c0,0.13245 0.32931,0.50646 0.39735,0.7947c0.03043,0.12891 0.03879,0.30369 0.13245,0.39735c0.09366,0.09366 0.09184,0.19322 0.2649,0.2649c0.12237,0.05069 0.17124,0.03879 0.2649,0.13245c0.09366,0.09366 0.14542,0.24165 0.39735,0.39735c0.33801,0.2089 0.4892,0.06077 0.66225,0.13245c0.12237,0.05069 0.2243,0.19322 0.39735,0.2649c0.24474,0.10137 0.56859,0.0388 0.66225,0.13245c0.09366,0.09366 0.2649,0.2649 0.39735,0.39735c0.13245,0.13245 0.39735,0.2649 0.5298,0.39735l0.2649,0.13245l0.13245,0.13245l0,0.13245" id="svg_3" stroke-width="2" stroke="#6B6B6E" fill="none"/>
  <path d="m20.01987,26.6755c0,0.13245 0.03879,0.43614 0.13245,0.5298c0.09366,0.09366 0.14253,0.08176 0.2649,0.13245c0.17306,0.07168 0.2649,0.2649 0.2649,0.39735c0,0.2649 0.08176,0.27498 0.13245,0.39735c0.07168,0.17305 0.2649,0.13245 0.2649,0.2649c0,0.13245 -0.05069,0.27498 0,0.39735c0.07168,0.17305 0.17124,0.30369 0.2649,0.39735c0.09366,0.09366 0.19322,0.09184 0.2649,0.2649c0.05069,0.12237 0.13245,0.13245 0.2649,0.2649c0.13245,0.13245 0.27498,0.21421 0.39735,0.2649c0.17305,0.07168 0.3741,0.01296 0.5298,0.2649c0.06963,0.11267 -0.06441,0.02334 -0.13245,-0.2649c-0.03043,-0.12891 -0.01297,-0.50655 -0.2649,-0.66225c-0.11267,-0.06963 -0.14541,-0.3741 -0.39735,-0.5298c-0.11267,-0.06963 -0.13245,-0.13245 -0.13245,-0.2649c0,-0.13245 0,-0.2649 0,-0.39735c0,-0.13245 0,-0.2649 0,-0.39735l0,-0.13245l0,-0.13245" id="svg_4" stroke-width="2" stroke="#6B6B6E" fill="none"/>
  <path d="m21.87418,27.4702c0,-0.13245 0,-0.39735 0,-0.7947c0,-0.13245 0,-0.2649 0,-0.5298c0,-0.2649 0,-0.5298 0,-0.92715c0,-0.2649 -0.06441,-0.63891 -0.13245,-0.92715c-0.12172,-0.51563 0,-0.66225 0,-1.0596c0,-0.39735 0,-0.7947 0,-0.92715c0,-0.2649 0,-0.5298 0,-0.7947c0,-0.2649 0,-0.5298 0,-0.66225c0,-0.2649 0.06536,-0.38127 0.13245,-0.7947c0.02122,-0.13074 0.01008,-0.44804 0.13245,-0.39735c0.17305,0.07168 0.33063,0.38514 0.39735,0.92715c0.03237,0.26292 0.03823,0.64481 0.2649,1.19205c0.16029,0.38696 0.11284,0.82495 0.2649,1.19205c0.14336,0.34611 0.33063,0.65004 0.39735,1.19205c0.01618,0.13146 0.13245,0.39735 0.13245,0.5298c0,0.13245 0,0.2649 0,0.39735c0,0.13245 0,0.39735 0,0.5298c0,0.13245 0,0.39735 0,0.5298c0,0.13245 0,0.2649 0,0.39735c0,0.13245 0,0.2649 0,0.39735c0,0.13245 0,0.39735 0,0.5298c0,0.13245 -0.19686,0.24156 -0.2649,0.5298c-0.03043,0.12891 -0.19322,0.17305 -0.2649,0c-0.10137,-0.24474 0.01618,-0.66324 0,-0.7947c-0.06672,-0.54202 -0.19818,-0.78249 -0.2649,-1.3245c-0.03237,-0.26291 0.07677,-0.67362 0,-0.92715c-0.13839,-0.45707 -0.22247,-0.53322 -0.2649,-0.7947c-0.06709,-0.41344 -0.13245,-0.66225 -0.13245,-0.92715c0,-0.2649 0,-0.39735 0,-0.7947c0,-0.2649 0,-0.5298 0,-0.92715c0,-0.39735 0,-0.66225 0,-0.92715c0,-0.13245 0,-0.39735 0,-0.66225c0,-0.13245 0,-0.2649 0,-0.39735c0,-0.13245 0,-0.2649 0,-0.5298c0,-0.13245 0,-0.2649 0,-0.39735c0,-0.13245 0,-0.2649 0,-0.39735c0,-0.13245 0,-0.2649 0,-0.39735c0,-0.13245 0,-0.2649 0,-0.5298c0,-0.13245 0.06077,-0.2243 0.13245,-0.39735c0.05069,-0.12237 0,-0.2649 0,-0.39735c0,-0.13245 0,-0.39735 0,-0.5298c0,-0.13245 0.13245,-0.2649 0.13245,-0.39735c0,-0.2649 0.13245,-0.39735 0.13245,-0.5298c0,-0.13245 -0.10137,-0.28506 0,-0.5298c0.07168,-0.17305 0.13245,-0.39735 0.13245,-0.5298c0,-0.13245 -0.09366,-0.30369 0,-0.39735c0.09366,-0.09366 0.14253,-0.18314 0.2649,-0.13245c0.17305,0.07168 0.13245,0.39735 0.13245,0.7947c0,0.39735 0.13245,0.92715 0.13245,1.45695c0,0.39735 0.33026,0.91107 0.39735,1.3245c0.04243,0.26148 0,0.66225 0,0.7947c0,0.13245 0.06077,0.2243 0.13245,0.39735c0.05069,0.12237 0,0.2649 0,0.39735c0,0.13245 0,0.39735 0,0.5298c0,0.13245 0,0.39735 0,0.5298c0,0.13245 0,0.2649 -0.13245,0.5298c-0.13245,0.2649 -0.19527,0.24512 -0.2649,0.13245c-0.1557,-0.25194 -0.2649,-0.2649 -0.2649,-0.5298c0,-0.13245 0,-0.39735 0,-0.66225c0,-0.2649 -0.06441,-0.37401 -0.13245,-0.66225c-0.06086,-0.25781 0,-0.66225 0,-1.0596c0,-0.13245 0,-0.39735 0,-0.5298c0,-0.39735 0,-0.5298 0,-0.7947c0,-0.39735 0,-0.5298 0,-0.7947c0,-0.2649 0,-0.5298 0,-0.66225c0,-0.13245 0,-0.39735 0,-0.66225c0,-0.2649 0,-0.66225 0,-0.7947c0,-0.39735 0,-0.7947 0,-1.19205c0,-0.2649 -0.2649,-0.7947 -0.2649,-1.0596c0,-0.39735 0,-0.66225 0,-1.0596c0,-0.13245 0,-0.39735 0,-0.7947c0,-0.2649 0,-0.5298 0,-0.7947c0,-0.2649 0,-0.5298 0,-0.66225c0,-0.13245 0,-0.2649 0,-0.39735c0,-0.13245 0,-0.2649 0,-0.39735c0,-0.13245 0,-0.2649 0,-0.39735c0,-0.2649 0,-0.39735 0,-0.5298c0,-0.2649 0,-0.39735 0,-0.5298c0,-0.13245 0,-0.2649 0,-0.39735c0,-0.13245 0.0406,-0.32567 -0.13245,-0.39735c-0.12237,-0.05069 -0.3037,-0.17124 -0.39735,-0.2649c-0.09366,-0.09366 -0.2243,-0.06077 -0.39735,-0.13245c-0.24474,-0.10137 -0.3037,-0.17124 -0.39735,-0.2649c-0.18731,-0.18731 -0.39735,0 -0.66225,-0.13245c-0.2649,-0.13245 -0.2649,-0.2649 -0.39735,-0.2649c-0.13245,0 -0.30369,-0.03879 -0.39735,-0.13245c-0.09366,-0.09366 -0.2243,-0.06077 -0.39735,-0.13245c-0.12237,-0.05069 -0.2649,0 -0.39735,0c-0.13245,0 -0.39735,0 -0.5298,0c-0.2649,0 -0.39735,0 -0.5298,0c-0.13245,0 -0.2649,0 -0.39735,0c-0.13245,0 -0.2649,0 -0.39735,0c-0.2649,0 -0.62165,0.06077 -0.7947,0.13245c-0.12237,0.05069 -0.41751,-0.10137 -0.66225,0c-0.17306,0.07168 -0.39735,0.13245 -0.5298,0.13245c-0.13245,0 -0.2649,0 -0.39735,0c-0.13245,0 -0.2649,0 -0.5298,0c-0.2649,0 -0.39735,0 -0.7947,0c-0.13245,0 -0.2649,0 -0.39735,0c-0.13245,0 -0.2649,0 -0.39735,0c-0.13245,0 -0.2649,0 -0.39735,0c-0.2649,0 -0.39735,0 -0.5298,0c-0.13245,0 -0.39735,0 -0.5298,0c-0.13245,0 -0.39735,0 -0.66225,0c-0.2649,0 -0.39735,0 -0.5298,0c-0.13245,0 -0.2649,0 -0.39735,0c-0.13245,0 -0.2649,0 -0.5298,0c-0.13245,0 -0.5298,0 -0.66225,-0.13245c-0.13245,-0.13245 -0.2649,-0.13245 -0.39735,-0.13245c-0.2649,0 -0.35675,-0.06077 -0.5298,-0.13245c-0.24474,-0.10137 -0.5298,0 -0.66225,0c-0.13245,0 -0.2649,0 -0.39735,0c-0.13245,0 -0.27498,-0.05069 -0.39735,0c-0.17305,0.07168 -0.37401,0.19686 -0.66225,0.2649c-0.12891,0.03043 -0.27498,-0.05069 -0.39735,0c-0.17305,0.07168 -0.2243,0.19322 -0.39735,0.2649c-0.12237,0.05069 -0.2649,0 -0.39735,0c-0.13245,0 -0.13245,0.13245 -0.2649,0.2649c-0.13245,0.13245 -0.2649,0.2649 -0.2649,0.5298c0,0.13245 0,0.2649 0,0.39735c0,0.13245 0.05069,0.27498 0,0.39735c-0.07168,0.17305 -0.13245,0.2649 -0.13245,0.39735c0,0.2649 0.03043,0.40089 0,0.5298c-0.06805,0.28825 -0.13245,0.39735 -0.2649,0.5298c-0.13245,0.13245 -0.13245,0.39735 -0.13245,0.5298c0,0.2649 -0.2649,0.39735 -0.2649,0.5298c0,0.2649 -0.13245,0.39735 -0.13245,0.5298c0,0.13245 -0.10202,0.40089 -0.13245,0.5298c-0.06805,0.28824 -0.13245,0.39735 -0.13245,0.5298c0,0.13245 0,0.2649 0,0.39735c0,0.13245 -0.03043,0.26136 0,0.13245c0.06805,-0.28825 0.13245,-0.66225 0.13245,-0.92715c0,-0.2649 -0.2089,-0.4567 0,-0.7947c0.1557,-0.25194 0.2649,-0.2649 0.2649,-0.39735c0,-0.2649 -0.02122,-0.39906 0,-0.5298c0.06709,-0.41344 0.13245,-0.5298 0.13245,-0.7947c0,-0.13245 -0.05069,-0.27498 0,-0.39735c0.07168,-0.17305 0.13245,-0.2649 0.13245,-0.39735c0,-0.13245 0,-0.2649 0.13245,-0.66225c0.13245,-0.39735 0.03879,-0.5686 0.13245,-0.66225c0.09366,-0.09366 0.13245,-0.13245 0.2649,-0.13245c0.13245,0 0.2649,0 0.39735,0c0.13245,0 0.2649,0 0.39735,0c0.13245,0 0.26844,0.10202 0.39735,0.13245c0.28825,0.06805 0.40089,0.10202 0.5298,0.13245c0.28825,0.06805 0.40444,0.20404 0.66225,0.2649c0.28825,0.06805 0.39735,0.13245 0.5298,0.13245c0.13245,0 0.26844,-0.03043 0.39735,0c0.28825,0.06805 0.2649,0.2649 0.39735,0.2649c0.2649,0 0.39735,0 0.5298,0c0.13245,0 0.2649,0 0.39735,0c0.13245,0 0.2649,0 0.39735,0c0.2649,0 0.39735,0 0.66225,0c0.2649,0 0.39735,0 0.5298,0c0.2649,0 0.5298,-0.13245 0.92715,-0.13245c0.2649,0 0.39735,0 0.5298,0c0.13245,0 0.2649,0 0.39735,0c0.2649,0 0.5298,0 0.7947,0c0.39735,0 0.82495,0.15206 1.19205,0c0.34611,-0.14336 0.5298,-0.2649 0.7947,-0.2649c0.2649,0 0.39735,0 0.5298,0c0.13245,0 0.2649,-0.13245 0.39735,-0.13245c0.13245,0 0.24156,-0.0644 0.5298,-0.13245c0.25781,-0.06086 0.63891,-0.0644 0.92715,-0.13245c0.25782,-0.06086 0.66225,0 1.0596,0c0.13245,0 0.39735,0 0.66225,0c0.2649,0 0.39735,0 0.5298,0c0.13245,0 0.2649,0 0.5298,0c0.13245,0 0.24156,0.0644 0.5298,0.13245c0.38672,0.09129 0.45812,0.09185 0.5298,0.2649c0.05069,0.12237 -0.06086,0.40444 0,0.66225c0.06804,0.28825 0.38115,0.53854 0.5298,0.7947c0.2397,0.41304 0.23447,0.6658 0.2649,0.7947c0.06804,0.28825 0.13245,0.39735 0.13245,0.5298c0,0.13245 0,0.2649 0,0.39735c0,0.13245 0.03043,0.26844 0,0.39735c-0.06804,0.28824 -0.13245,0.39735 -0.13245,0.5298c0,0.13245 0.09366,0.30369 0,0.39735c-0.09366,0.09366 -0.13245,0.2649 -0.2649,0.5298c-0.13245,0.2649 -0.13245,0.39735 -0.13245,0.7947c0,0.39735 0,0.66225 0,1.0596c0,0.39735 0,0.5298 0,0.92715c0,0.2649 0,0.5298 0,0.92715c0,0.2649 0,0.5298 0,0.92715c0,0.13245 0,0.2649 0,0.39735c0,0.13245 0,0.2649 0,0.39735c0,0.13245 0,0.2649 0,0.39735c0,0.13245 0,0.2649 0,0.39735c0,0.2649 0,0.39735 0,0.5298c0,0.2649 0,0.5298 0,0.66225c0,0.13245 0,0.2649 0,0.39735c0,0.13245 0,0.2649 0,0.39735c0,0.13245 -0.13245,0.39735 -0.13245,0.66225c0,0.39735 -0.12154,0.58104 -0.2649,0.92715c-0.05069,0.12237 0,0.2649 0,0.39735c0,0.13245 -0.03879,0.17124 -0.13245,0.2649c-0.18731,0.18731 0,0.39735 0,0.5298c0,0.13245 -0.17124,0.43615 -0.2649,0.5298c-0.09366,0.09366 -0.13245,0.13245 -0.13245,0.2649c0,0.2649 -0.19322,0.35675 -0.2649,0.5298c-0.05069,0.12237 0,0.2649 0,0.5298c0,0.13245 0,0.39735 0,0.5298c0,0.2649 -0.06077,0.35675 -0.13245,0.5298c-0.05069,0.12237 0,0.2649 0,0.5298c0,0.13245 0,0.39735 0,0.5298c0,0.13245 -0.05069,0.27498 0,0.39735c0.07168,0.17305 0.10202,0.26844 0.13245,0.39735c0.06804,0.28824 0.15223,0.46017 0.2649,0.5298c0.25194,0.1557 0.2649,0.39735 0.2649,0.5298c0,0.13245 -0.06963,0.41713 0,0.5298c0.1557,0.25194 0.23447,0.26845 0.2649,0.39735c0.06804,0.28824 0.21421,0.40743 0.2649,0.5298c0.07168,0.17305 0.14253,0.21421 0.2649,0.2649c0.17306,0.07168 0.08177,0.27498 0.13245,0.39735c0.07168,0.17305 0.03879,0.30369 0.13245,0.39735c0.09366,0.09366 0.19322,0.09185 0.2649,0.2649c0.05069,0.12237 0.13245,0.2649 0.13245,0.39735c0,0.13245 0.13245,0.2649 0.13245,0.39735c0,0.13245 0.19322,0.2243 0.2649,0.39735c0.05069,0.12237 0,0.2649 0,0.5298c0,0.13245 -0.0406,0.46903 0.13245,0.39735c0.12237,-0.05069 -0.00354,-0.36692 -0.13245,-0.39735c-0.28824,-0.06804 -0.35675,-0.19322 -0.5298,-0.2649c-0.24474,-0.10137 -0.35675,-0.19322 -0.5298,-0.2649c-0.12237,-0.05069 -0.32038,-0.05548 -0.5298,-0.2649c-0.20942,-0.20942 -0.3462,-0.17179 -0.66225,-0.5298c-0.196,-0.22203 -0.22418,-0.42199 -0.39735,-0.66225c-0.10952,-0.15196 -0.32567,-0.2243 -0.39735,-0.39735c-0.05069,-0.12237 -0.06077,-0.22429 -0.13245,-0.39735c-0.05069,-0.12237 -0.06077,-0.2243 -0.13245,-0.39735c-0.05069,-0.12237 -0.09173,-0.28954 -0.2649,-0.5298c-0.10952,-0.15196 -0.24165,-0.14542 -0.39735,-0.39735c-0.06963,-0.11267 -0.03879,-0.17124 -0.13245,-0.2649c-0.09366,-0.09366 -0.2649,-0.13245 -0.39735,-0.2649c-0.13245,-0.13245 -0.19527,-0.15223 -0.2649,-0.2649c-0.1557,-0.25194 -0.30369,-0.17125 -0.39735,-0.2649c-0.09366,-0.09366 -0.03879,-0.30369 -0.13245,-0.39735c-0.09366,-0.09366 -0.28783,-0.24539 -0.39735,-0.39735c-0.17317,-0.24026 -0.17124,-0.3037 -0.2649,-0.39735c-0.09366,-0.09366 0.09366,-0.30369 0,-0.39735c-0.09366,-0.09366 -0.13245,-0.13245 -0.13245,-0.2649c0,-0.13245 -0.19322,-0.2243 -0.2649,-0.39735c-0.05069,-0.12237 -0.0388,-0.30369 -0.13245,-0.39735c-0.09366,-0.09366 -0.09173,-0.15709 -0.2649,-0.39735c-0.10952,-0.15196 -0.35675,-0.45812 -0.5298,-0.5298c-0.12237,-0.05069 -0.30369,-0.09366 -0.39735,0c-0.09366,0.09366 0,0.2649 0,0.5298c0,0.2649 0,0.39735 0.13245,0.5298c0.13245,0.13245 0.34666,0.27498 0.39735,0.39735c0.07168,0.17305 0.13245,0.2649 0.2649,0.39735c0.13245,0.13245 0.2649,0.2649 0.2649,0.39735c0,0.13245 0,0.2649 0,0.13245c0,-0.13245 0,-0.2649 0,-0.39735c0,-0.13245 0,-0.39735 0,-0.66225c0,-0.13245 -0.06963,-0.41713 0,-0.5298c0.15571,-0.25194 0.50646,-0.19686 0.7947,-0.2649c0.25781,-0.06086 0.39906,-0.11123 0.5298,-0.13245c0.41343,-0.06709 0.72507,-0.28468 0.7947,-0.39735c0.1557,-0.25194 0.30446,-0.12563 0.5298,-0.2649c0.25194,-0.15571 0.29294,-0.35949 0.66225,-0.66225c0.14486,-0.11875 0.26845,-0.36692 0.39735,-0.39735c0.28824,-0.06804 0.34491,-0.36735 0.5298,-0.39735c0.29234,-0.04744 0.2649,0.2649 0.2649,0.7947c0,0.39735 0,0.7947 0,0.92715c0,0.39735 0,0.5298 0,0.92715c0,0.13245 -0.13245,0.39735 0,0.39735c0.13245,0 -0.22233,-0.54663 -0.39735,-0.92715c-0.32271,-0.70165 -0.56802,-0.77725 -0.7947,-1.3245c-0.16028,-0.38696 -0.32567,-0.7541 -0.39735,-0.92715c-0.15206,-0.3671 0,-0.5298 0,-0.7947c0,-0.13245 -0.13245,-0.13245 -0.13245,0.13245c0,0.2649 0,0.7947 0,1.3245c0,0.39735 0,0.92715 0,1.3245c0,0.39735 0,0.66225 0,0.92715c0,0.13245 -0.01008,0.31559 -0.13245,0.2649c-0.17305,-0.07168 -0.13245,-0.5298 -0.13245,-0.66225c0,-0.2649 0,-0.39735 0,-0.66225c0,-0.2649 0,-0.66225 0,-1.0596c0,-0.5298 -0.10608,-0.80325 0,-1.45695c0.06709,-0.41344 0.33026,-0.77862 0.39735,-1.19205c0.06365,-0.39222 0.06536,-0.91107 0.13245,-1.3245c0.06365,-0.39222 0,-0.7947 0,-1.3245c0,-0.5298 0.12651,-0.99989 0.2649,-1.45695c0.15353,-0.50707 0.13245,-0.7947 0.13245,-1.19205c0,-0.5298 0,-0.92715 0,-1.19205c0,-0.39735 -0.09129,-0.80533 0,-1.19205c0.06805,-0.28825 0.39735,-0.66225 0.39735,-0.92715c0,-0.2649 0.13245,-0.66225 0.13245,-1.0596c0,-0.2649 0.04116,-0.54043 0.13245,-0.92715c0.06804,-0.28825 0.19686,-0.37401 0.2649,-0.66225c0.06086,-0.25781 0.2649,-0.5298 0.13245,-0.5298c-0.13245,0 0,0.66225 0,1.0596c0,0.66225 0,1.0596 0,1.72185c0,0.66225 -0.13245,1.45695 -0.13245,2.38411c0,0.7947 0,1.5894 0,2.11921c0,0.5298 0,1.0596 0,1.3245c0,0.13245 -0.13245,0.2649 -0.2649,0.39735c-0.2649,0.2649 -0.24368,0.39906 -0.2649,0.5298c-0.06709,0.41344 -0.20017,0.79867 -0.2649,1.3245c-0.06673,0.54202 -0.13245,0.66225 -0.13245,0.7947c0,0.13245 0.06606,-0.25784 0.13245,-1.19205c0.05634,-0.7927 0,-1.8543 0,-3.04636c0,-1.0596 0,-2.25166 0,-3.17881c0,-0.66225 0.10608,-1.59796 0,-2.25166c-0.06709,-0.41344 -0.13245,-0.7947 -0.13245,-1.0596c0,-0.13245 0.09366,-0.43614 0,-0.5298c-0.09366,-0.09366 -0.13245,-0.13245 -0.13245,-0.2649c0,-0.13245 0.06077,-0.2243 0.13245,-0.39735c0.05069,-0.12237 0.13245,-0.39735 0.2649,-0.5298c0.13245,-0.13245 0.03879,-0.30369 0.13245,-0.39735c0.09366,-0.09366 0.30369,0.03879 0.39735,0.13245c0.09366,0.09366 0.03879,0.17124 0.13245,0.2649c0.09366,0.09366 0.3037,0.17124 0.39735,0.2649c0.09366,0.09366 0,0.2649 0,0.5298c0,0.13245 0.09366,0.30369 0,0.39735c-0.09366,0.09366 -0.17125,0.17124 -0.2649,0.2649c-0.09366,0.09366 -0.13245,0.13245 -0.2649,0.13245c-0.13245,0 -0.2649,0 -0.39735,0c-0.13245,0 -0.35675,-0.19322 -0.5298,-0.2649c-0.12237,-0.05069 -0.37401,-0.19686 -0.66225,-0.2649c-0.12891,-0.03043 -0.2649,-0.2649 -0.39735,-0.2649c-0.13245,0 -0.13245,-0.13245 -0.2649,-0.13245c-0.13245,0 -0.2649,-0.2649 -0.39735,-0.2649c-0.13245,0 -0.2243,-0.19322 -0.39735,-0.2649c-0.12237,-0.05069 -0.2243,-0.06077 -0.39735,-0.13245c-0.3671,-0.15206 -0.66225,-0.13245 -0.92715,-0.13245c-0.2649,0 -0.2649,-0.13245 -0.39735,-0.13245c-0.13245,0 -0.2649,0 -0.39735,0c-0.13245,0 -0.2649,-0.13245 -0.39735,-0.13245c-0.13245,0 -0.39735,0 -0.66225,0c-0.13245,0 -0.5298,0 -0.66225,0c-0.2649,0 -0.39735,0 -0.66225,0c-0.13245,0 -0.2649,0 -0.39735,0c-0.13245,0 -0.2649,0 -0.39735,0c-0.13245,0 -0.2649,0 -0.5298,0c-0.13245,0 -0.2649,0 -0.39735,0c-0.13245,0 -0.39735,0.13245 -0.5298,0.13245c-0.13245,0 -0.2649,0 -0.39735,0c-0.2649,0 -0.37401,0.0644 -0.66225,0.13245c-0.12891,0.03043 -0.39735,0 -0.5298,0c-0.13245,0 -0.2649,0 -0.39735,0c-0.13245,0 -0.4892,-0.19322 -0.66225,-0.2649c-0.12237,-0.05069 -0.40743,0.05069 -0.5298,0c-0.17305,-0.07168 -0.2649,-0.13245 -0.39735,-0.13245c-0.13245,0 -0.2243,0.06077 -0.39735,0.13245c-0.12237,0.05069 -0.37401,0.0644 -0.66225,0.13245c-0.12891,0.03043 -0.20519,0.12651 -0.66225,0.2649c-0.12677,0.03838 -0.03879,0.17124 -0.13245,0.2649c-0.09366,0.09366 -0.13245,0.13245 -0.13245,0.2649c0,0.2649 -0.13245,0.39735 -0.13245,0.5298c0,0.13245 -0.06077,0.2243 -0.13245,0.39735c-0.10137,0.24474 -0.19322,0.4892 -0.2649,0.66225c-0.05069,0.12237 -0.03879,0.30369 -0.13245,0.39735c-0.09366,0.09366 -0.13245,0.13245 -0.13245,0.2649c0,0.13245 0.05069,0.40743 0,0.5298c-0.14336,0.34611 -0.11284,0.4276 -0.2649,0.7947c-0.07168,0.17305 -0.13245,0.2649 -0.13245,0.39735c0,0.13245 0,0.2649 0,0.39735c0,0.13245 0,0.2649 0,0.39735c0,0.13245 0.06077,0.2243 0.13245,0.39735c0.10137,0.24474 0,0.39735 0,0.66225c0,0.13245 0,0.39735 0,0.5298c0,0.2649 0,0.39735 0,0.5298c0,0.13245 0,0.2649 0,0.39735c0,0.13245 0,0.2649 0,0.5298c0,0.13245 0,0.2649 0,0.39735c0,0.13245 0.09366,0.30369 0,0.39735c-0.09366,0.09366 -0.13245,0.13245 -0.13245,0.2649c0,0.13245 -0.06077,0.2243 -0.13245,0.39735c-0.10137,0.24474 -0.17124,0.5686 -0.2649,0.66225c-0.18731,0.18731 0,0.39735 0,0.5298c0,0.13245 -0.03879,0.17124 -0.13245,0.2649c-0.18731,0.18731 0,0.39735 0,0.66225c0,0.13245 0,0.39735 0,0.5298c0,0.2649 -0.13245,0.39735 -0.13245,0.5298c0,0.13245 -0.13245,0.39735 0,0.39735c0.13245,0 0,-0.39735 0,-0.5298c0,-0.39735 0,-0.5298 0,-0.92715c0,-0.2649 0,-0.5298 0,-0.7947c0,-0.13245 0,-0.2649 0,-0.39735c0,-0.13245 0,-0.39735 0,-0.5298c0,-0.13245 0,-0.39735 0,-0.5298c0,-0.2649 0,-0.39735 0,-0.7947c0,-0.39735 0.0644,-0.63891 0.13245,-0.92715c0.03043,-0.12891 0.13245,-0.5298 0.13245,-0.66225c0,-0.2649 0.13245,-0.39735 0.13245,-0.5298c0,-0.13245 0,-0.2649 0,-0.39735c0,-0.13245 0,-0.2649 0,-0.39735c0,-0.13245 0.13245,-0.39735 0,-0.39735c-0.13245,0 0,0.66225 0,1.3245c0,0.66225 0,1.19205 0,1.5894c0,0.5298 0,0.92715 0,1.0596c0,0.39735 0,0.66225 0,0.92715c0,0.13245 0,0.39735 0,0.5298c0,0.2649 0,0.39735 0,0.5298c0,0.13245 0,0.2649 0,0.39735c0,0.13245 0,0.2649 0,0.39735c0,0.13245 0,0.2649 0,0.39735c0,0.13245 0,0.2649 0,0.39735c0,0.13245 0,0.2649 0,0.39735c0,0.13245 0,0.39735 0,0.5298c0,0.13245 0,0.2649 0,0.39735c0,0.2649 0,0.39735 0,0.5298c0,0.13245 0,0.2649 0,0.39735c0,0.13245 0,0.2649 0,0.39735c0,0.13245 0,0.2649 0,0.39735c0,0.13245 0,0.2649 0,0.5298c0,0.13245 0,0.39735 0,0.5298c0,0.2649 -0.03879,0.30369 -0.13245,0.39735c-0.09366,0.09366 -0.13245,0.2649 -0.13245,0.39735c0,0.13245 0,0.2649 0,0.39735c0,0.2649 -0.13245,0.39735 -0.13245,0.5298c0,0.13245 0,0.2649 0,0.39735c0,0.13245 0,0.2649 0,0.39735c0,0.13245 0,0.2649 0,0.39735c0,0.13245 0,0.2649 0,0.39735c0,0.13245 0,0.2649 0,0.39735c0,0.13245 0,0.2649 0,0.39735c0,0.13245 0,0.2649 0,0.39735c0,0.13245 0,0.39735 0,0.5298c0,0.2649 0.13245,0.39735 0.13245,0.66225c0,0.13245 0,0.39735 0,0.5298c0,0.13245 0,0.2649 0,0.39735c0,0.13245 0,0.2649 0,0.39735c0,0.13245 -0.09366,0.3037 0,0.39735c0.09366,0.09366 0.30369,0.09366 0.39735,0c0.09366,-0.09366 -0.15261,-0.23382 -0.39735,-0.13245c-0.17305,0.07168 -0.21004,0.07759 -0.39735,0.2649c-0.09366,0.09366 -0.03879,0.17124 -0.13245,0.2649c-0.09366,0.09366 -0.22611,0.35856 -0.13245,0.2649c0.09366,-0.09366 0.15538,-0.24539 0.2649,-0.39735c0.17317,-0.24026 0.21421,-0.27498 0.2649,-0.39735c0.07168,-0.17306 0.30369,-0.17125 0.39735,-0.2649c0.09366,-0.09366 0.09185,-0.32567 0.2649,-0.39735c0.12237,-0.05069 0.15538,-0.11294 0.2649,-0.2649c0.17317,-0.24026 0.32567,-0.2243 0.39735,-0.39735c0.05069,-0.12237 0.06077,-0.2243 0.13245,-0.39735c0.05069,-0.12237 0.19322,-0.2243 0.2649,-0.39735c0.05069,-0.12237 0.09185,-0.19322 0.2649,-0.2649c0.12237,-0.05069 0.2243,-0.19322 0.39735,-0.2649c0.12237,-0.05069 0.30369,-0.03879 0.39735,-0.13245c0.09366,-0.09366 0.2649,0 0.39735,0l0.13245,-0.13245l-0.13245,0l-0.13245,0" id="svg_5" stroke-width="2" stroke="#6B6B6E" fill="none"/>
  <path d="m4.78808,28.92715c0.13245,0 0.2649,0 0.39735,0c0.13245,0 0.14542,-0.1092 0.39735,-0.2649c0.11267,-0.06963 0.2649,-0.2649 0.39735,-0.39735c0.13245,-0.13245 0.21421,-0.27498 0.2649,-0.39735c0.07168,-0.17305 0.17124,-0.30369 0.2649,-0.39735c0.09366,-0.09366 0.30369,-0.03879 0.39735,-0.13245c0.09366,-0.09366 0.14253,-0.08176 0.2649,-0.13245c0.17306,-0.07168 0.46903,-0.2243 0.39735,-0.39735c-0.10137,-0.24474 -0.47912,0.14253 -0.5298,0.2649c-0.14336,0.34611 -0.39735,0.39735 -0.5298,0.5298c-0.13245,0.13245 -0.2649,0.13245 -0.39735,0.2649c-0.13245,0.13245 -0.2649,0.2649 -0.39735,0.39735c-0.13245,0.13245 -0.30369,0.3037 -0.39735,0.39735c-0.18731,0.18731 -0.13245,0.39735 -0.2649,0.39735c-0.2649,0 -0.28954,0.09173 -0.5298,0.2649c-0.15196,0.10953 -0.2649,0.2649 -0.2649,0.39735c0,0.13245 0.01008,0.31559 0.13245,0.2649c0.17305,-0.07168 0.2649,-0.13245 0.39735,-0.2649c0.13245,-0.13245 0.28468,-0.06282 0.39735,-0.13245c0.25194,-0.15571 0.2649,-0.2649 0.39735,-0.39735c0.13245,-0.13245 0.30369,-0.17124 0.39735,-0.2649c0.09366,-0.09366 0.2649,-0.13245 0.39735,-0.2649c0.13245,-0.13245 0.17124,-0.17124 0.2649,-0.2649c0.09366,-0.09366 0.03879,-0.17125 0.13245,-0.2649c0.09366,-0.09366 0.09173,-0.15709 0.2649,-0.39735c0.10952,-0.15196 0.03879,-0.30369 0.13245,-0.39735c0.09366,-0.09366 0.13245,-0.13245 0.2649,-0.2649c0.13245,-0.13245 0.14253,-0.21421 0.2649,-0.2649c0.17305,-0.07168 0.17124,-0.30369 0.2649,-0.39735c0.09366,-0.09366 0.32567,-0.09184 0.39735,-0.2649c0.05069,-0.12237 0.13245,-0.2649 0.2649,-0.39735c0.13245,-0.13245 0.27498,-0.21421 0.39735,-0.2649c0.17305,-0.07168 0.3741,-0.01296 0.5298,-0.2649c0.06963,-0.11267 0.03879,-0.17124 0.13245,-0.2649c0.09366,-0.09366 0.32567,0.0406 0.39735,-0.13245c0.05069,-0.12237 0.03879,-0.17124 0.13245,-0.2649c0.09366,-0.09366 0.07759,-0.21004 0.2649,-0.39735c0.09366,-0.09366 0.09184,-0.19322 0.2649,-0.2649c0.12237,-0.05069 0.14253,-0.08176 0.2649,-0.13245c0.17305,-0.07168 0.37401,-0.32931 0.66225,-0.39735c0.12891,-0.03043 0.2649,0 0.39735,0c0.13245,0 0.2649,0 0.39735,0c0.13245,0 0.2649,0 0.39735,0c0.13245,0 0.34249,0.18731 0.5298,0c0.09366,-0.09366 0.13599,-0.10202 0.2649,-0.13245c0.28825,-0.06804 0.39735,-0.13245 0.5298,-0.13245c0.13245,0 0.37785,0.02293 0.5298,0.13245c0.48053,0.34634 0.92715,0.2649 1.3245,0.2649c0.2649,0 0.66225,0.13245 0.92715,0.13245c0.13245,0 0.2649,0 0.39735,0c0.13245,0 0.26844,0.10202 0.39735,0.13245c0.28824,0.06804 0.28506,0.16353 0.5298,0.2649c0.17306,0.07168 0.35675,0.19322 0.5298,0.2649c0.12237,0.05069 0.2649,0.13245 0.2649,0.39735c0,0.13245 0,0.39735 0,0.5298c0,0.2649 0,0 0,-0.13245c0,-0.2649 0,-0.5298 0,-0.7947c0,-0.2649 0,-0.39735 0,-0.7947c0,-0.13245 0,-0.5298 0,-1.0596c0,-0.39735 0,-0.92715 0,-1.19205c0,-0.39735 0,-0.7947 0,-1.0596c0,-0.2649 0.05069,-0.53988 0,-0.66225c-0.07168,-0.17305 -0.19322,-0.2243 -0.2649,-0.39735c-0.05069,-0.12237 0,-0.39735 0,-0.5298c0,-0.13245 -0.19322,-0.35675 -0.2649,-0.5298c-0.10137,-0.24474 -0.17124,-0.30369 -0.2649,-0.39735c-0.09366,-0.09366 -0.06077,-0.2243 -0.13245,-0.39735c-0.10137,-0.24474 -0.03879,-0.30369 -0.13245,-0.39735c-0.09366,-0.09366 -0.24539,-0.28783 -0.39735,-0.39735c-0.24026,-0.17317 -0.2649,-0.2649 -0.39735,-0.2649c-0.13245,0 -0.39735,0 -0.5298,0c-0.2649,0 -0.59429,-0.12179 -0.92715,0.13245c-0.37952,0.28988 -0.59421,0.63891 -0.66225,0.92715c-0.03043,0.12891 -0.23447,0.53335 -0.2649,0.66225c-0.06805,0.28824 -0.43614,0.70105 -0.5298,0.7947c-0.09366,0.09366 -0.46271,0.24882 -0.5298,0.66225c-0.02122,0.13074 -0.13245,0.2649 -0.13245,0.39735c0,0.13245 0.2649,0.13245 0.7947,0.13245c0.92715,0 1.4717,-0.08544 2.38411,-0.39735c0.67492,-0.23073 0.91146,-0.42255 1.3245,-0.66225c0.25616,-0.14865 0.43615,-0.3037 0.5298,-0.39735c0.09366,-0.09366 0,-0.2649 0,-0.39735c0,-0.13245 -0.2388,-0.13116 -0.2649,0.13245c-0.06655,0.67208 -0.40999,1.0566 -0.5298,1.58941c-0.14817,0.65891 -0.41646,1.18333 -0.5298,1.45695c-0.16028,0.38696 -0.07759,0.66225 -0.2649,0.66225c-0.18731,0 -0.13245,-0.66225 -0.13245,-1.45695c0,-0.66225 0,-1.72185 0,-2.51656c0,-0.7947 0,-1.72186 0,-2.25166c0,-0.39735 0.39735,-0.92715 0,-0.92715c-0.2649,0 -0.13245,0.66225 -0.13245,1.19205c0,0.66225 0,1.0596 0,1.3245c0,0.2649 0.0638,-0.11655 0.2649,-1.0596c0.19533,-0.91597 0.15549,-1.61176 0.39735,-2.51656c0.18419,-0.68907 0.3308,-1.44713 0.39735,-2.11921c0.05221,-0.52722 0,-1.19205 0,-1.5894c0,-0.2649 0.10137,-0.54997 0,-0.7947c-0.07168,-0.17305 -0.08001,-0.42736 -0.2649,-0.39735c-0.29234,0.04744 -0.2649,0.66225 -0.2649,1.0596c0,0.5298 0,0.7947 0,1.19205c0,0.2649 -0.12891,0.49937 0,0.5298c0.28824,0.06805 0.13245,-0.92715 0.13245,-1.5894c0,-0.7947 0,-1.3245 0,-1.98675c0,-0.39735 0,-0.66225 0,-0.92715c0,-0.13245 -0.01008,-0.21421 -0.13245,-0.2649c-0.17305,-0.07168 -0.19461,0.17278 -0.39735,0.66225c-0.14336,0.34611 -0.45812,0.62165 -0.5298,0.7947c-0.10137,0.24474 -0.13245,0.39735 -0.13245,0.5298c0,0.13245 0.2649,-0.5298 0.7947,-1.3245c0.2649,-0.39735 0.9859,-1.11002 1.19205,-1.8543c0.07071,-0.25529 0.13245,-0.5298 0.13245,-0.7947c0,-0.13245 -0.02016,-0.16353 -0.2649,-0.2649c-0.17305,-0.07168 -0.39735,-0.13245 -0.66225,-0.13245c-0.2649,0 -0.5298,0 -0.7947,0c-0.2649,0 -0.4673,0.14812 -0.5298,0.2649c-0.22534,0.42105 -0.71773,0.32038 -0.92715,0.5298c-0.20942,0.20942 -0.39735,0.39735 -0.5298,0.5298c-0.13245,0.13245 -0.21421,0.40743 -0.2649,0.5298c-0.07168,0.17305 -0.19322,0.35675 -0.2649,0.5298c-0.10137,0.24474 0,0.39735 0,0.7947c0,0.13245 0,0.5298 0,0.66225c0,0.39735 0.0688,0.66738 0.13245,1.0596c0.06709,0.41344 0.54891,0.91843 0.66225,1.19205c0.16028,0.38696 0.19322,0.62165 0.2649,0.7947c0.05069,0.12237 0,0.2649 0.13245,0.2649c0.13245,0 0.47002,-0.49933 0.66225,-1.0596c0.21918,-0.63881 0.29716,-1.20161 0.39735,-1.72185c0.13488,-0.7004 0.38644,-0.84594 0.5298,-1.19205c0.10137,-0.24474 0,-0.5298 0,-0.7947c0,-0.13245 -0.10578,0.13835 -0.2649,0.7947c-0.22719,0.93711 -0.33162,1.45929 -0.39735,2.38411c-0.06639,0.93421 -0.39735,1.45695 -0.39735,1.98676c0,0.2649 -0.03879,0.62346 -0.13245,0.5298c-0.18731,-0.18731 0.04089,-0.80421 -0.13245,-1.45695c-0.21501,-0.80963 -0.33163,-1.85664 -0.39735,-2.78146c-0.06639,-0.93421 -0.3308,-1.84448 -0.39735,-2.51656c-0.03915,-0.39542 0.13245,-1.0596 -0.13245,-1.0596c-0.13245,0 0,0.66225 0,1.45695c0,0.92715 0,1.45695 0,1.98676c0,0.5298 0,0.66225 0,1.0596c0,0.2649 0,0.5298 0,0.66225c0,0.2649 -0.09366,0.43614 0,0.5298c0.09366,0.09366 0.39735,0 0.39735,-0.2649c0,-0.2649 0.2649,-0.5298 0.13245,-0.5298c-0.39735,0 0,1.19205 0,1.85431c0,0.66225 0,1.3245 0,1.8543c0,0.39735 0.09366,0.70105 0,0.7947c-0.09366,0.09366 -0.2649,-0.39735 -0.2649,-0.66225c0,-0.2649 -0.22247,-0.66567 -0.2649,-0.92715c-0.06709,-0.41344 -0.05153,-0.93211 -0.13245,-1.5894c-0.06672,-0.54202 -0.21477,-0.9364 -0.66225,-1.3245c-0.31642,-0.27443 -0.76306,-0.58489 -1.19205,-0.7947c-0.37626,-0.18402 -0.67522,-0.24165 -0.92715,-0.39735c-0.11267,-0.06963 -0.2649,-0.13245 -0.2649,0.39735c0,0.39735 0,1.0596 0,1.45695c0,0.5298 -0.09129,0.93778 0,1.3245c0.13609,0.57649 0.31591,0.84398 0.66225,1.3245c0.10952,0.15196 0.3308,0.27473 0.39735,-0.39735c0.05221,-0.52722 0,-1.3245 0,-2.38411c0,-1.0596 0,-1.8543 0,-2.51656c0,-0.5298 0,-0.92715 0,-1.0596c0,-0.13245 -0.04086,-0.28165 -0.13245,0c-0.24915,0.76617 -0.46804,1.73465 -0.66225,2.51656c-0.20193,0.81299 -0.3308,1.31468 -0.39735,1.98676c-0.03915,0.39542 0.02108,0.10972 -0.13245,-0.39735c-0.13839,-0.45706 -0.31249,-0.93399 -0.39735,-1.45695c-0.06709,-0.41344 -0.39735,-0.66225 -0.39735,-0.7947c0,-0.13245 0.11948,-0.3741 -0.13245,-0.5298c-0.11267,-0.06963 -0.2649,0 -0.39735,0c-0.2649,0 -0.57086,0.0447 -0.92715,0.2649c-0.47801,0.29543 -0.5298,0.5298 -0.92715,0.92715c-0.13245,0.13245 -0.13245,-0.13245 -0.13245,-0.66225c0,-0.5298 -0.02023,-1.32998 0.13245,-1.8543c0.1171,-0.40214 0.07159,-0.93424 0.13245,-1.19205c0.06805,-0.28825 0.27498,-0.44804 0.39735,-0.39735c0.17305,0.07168 0.13245,0.39735 0.13245,0.7947c0,0.39735 -0.05702,0.81232 0.13245,1.3245c0.20551,0.55554 0.40089,0.76427 0.5298,0.7947c0.28824,0.06805 0.2649,0.2649 0.39735,0.2649c0.13245,0 0.46017,-0.01978 0.5298,-0.13245c0.15571,-0.25194 0.39735,-0.2649 0.7947,-0.2649c0.13245,0 0.39735,0 0.7947,0c0.2649,0 0.41686,-0.15538 0.2649,-0.2649c-0.24026,-0.17317 -0.92715,-0.13245 -1.72185,-0.13245c-0.66225,0 -1.5894,0 -2.11921,0c-0.5298,0 -0.7947,0 -1.3245,0c-0.66225,0 -1.19205,-0.13245 -1.5894,-0.13245c-0.39735,0 -0.5298,0 -0.66225,0c-0.13245,0 -0.13245,0.13245 0.13245,0.13245c0.13245,0 0.5298,0 0.92715,0c0.2649,0 0.5298,0 0.66225,0c0.39735,0 0.66225,0 0.92715,0c0.2649,0 0.37462,-0.15353 -0.13245,0c-0.45707,0.13839 -0.74355,0.43669 -1.0596,0.7947c-0.39201,0.44406 -0.32705,1.09993 -0.5298,1.5894c-0.14336,0.34611 -0.52616,0.74801 -0.66225,1.3245c-0.03043,0.12891 -0.13245,0.2649 -0.13245,0.39735c0,0.13245 -0.02497,0.37952 0.2649,0c0.50847,-0.66572 0.46979,-1.43638 0.66225,-2.25166c0.21518,-0.91151 0.39492,-1.41881 0.5298,-2.11921c0.02505,-0.13006 0,0.13245 0,0.5298c0,0.7947 0,1.3245 0,1.98675c0,0.92715 0,1.85431 0,2.78146c0,0.66225 0,1.5894 0,1.8543c0,0.13245 0.08875,0.2631 0.13245,-0.2649c0.06645,-0.80292 0.31644,-1.85927 0.39735,-2.51656c0.06672,-0.54202 0.13245,-1.0596 0.13245,-1.45695c0,-0.39735 0.12237,-0.61156 0,-0.66225c-0.17305,-0.07168 -0.20535,0.21737 -0.5298,0.7947c-0.34945,0.6218 -0.59938,1.60059 -0.7947,2.51656c-0.2011,0.94305 -0.39735,1.3245 -0.39735,1.72185c0,0.2649 -0.13245,0.5298 0,0.5298c0.13245,0 0.11673,-0.53314 0.2649,-1.19205c0.11981,-0.5328 0.2649,-1.0596 0.2649,-1.72185c0,-0.13245 0,-0.5298 0,-0.7947c0,-0.13245 -0.26488,0.21151 -0.5298,1.0596c-0.27925,0.89396 -0.19851,1.84725 -0.2649,2.78146c-0.07511,1.05694 0,1.72186 0,2.25166c0,0.39735 0,0.5298 0,0.7947c0,0.13245 0,0.2649 0,0.39735c0,0.13245 0,-0.13245 0,-1.0596c0,-1.0596 0.11191,-2.13375 -0.13245,-3.57616c-0.18244,-1.07687 -0.39735,-1.98675 -0.39735,-2.51656c0,-0.2649 0,0.13245 0,0.7947c0,1.0596 0,1.98676 0,2.91391c0,1.0596 0,1.85431 0,2.78146c0,0.92715 0,1.98676 0,2.51656c0,0.5298 0,1.0596 0,1.45695c0,0.2649 -0.0644,0.55315 -0.13245,0.2649c-0.09129,-0.38672 0,-0.66225 0,-1.19205c0,-0.39735 -0.19781,-0.64617 -0.2649,-1.0596c-0.02122,-0.13074 0,-0.2649 0,0.13245c0,0.66225 0,1.45695 0,2.51656c0,0.66225 0.10441,1.46211 0,2.51656c-0.06655,0.67208 -0.19781,1.44087 -0.2649,1.85431c-0.06365,0.39222 0,0.7947 0,0.92715c0,0.2649 -0.13245,0.5298 0,0.5298c0.13245,0 0,-0.66225 0,-1.19205c0,-0.39735 0,-0.7947 0,-1.0596c0,-0.2649 -0.09366,-0.56859 0,-0.66225c0.18731,-0.18731 0.2649,0.2649 0.2649,0.39735c0,0.39735 -0.04072,0.68689 0.13245,0.92715c0.21905,0.30391 0.2649,0.39735 0.5298,0.39735c0.2649,0 0.59249,-0.43625 1.0596,-1.19205c0.34817,-0.56334 0.95636,-1.03725 1.45695,-1.72185c0.28188,-0.38549 0.68689,-0.62153 0.92715,-0.7947c0.15196,-0.10952 0.43614,-0.17124 0.5298,-0.2649c0.09366,-0.09366 0.39735,-0.2649 0.5298,-0.2649c0.39735,0 0.89361,0.34817 1.45695,0c0.25194,-0.1557 0.39735,-0.2649 0.5298,-0.2649c0.39735,0 0.7947,0 1.3245,0c0.2649,0 0.7947,0 1.0596,0c0.39735,0 0.51372,-0.06536 0.92715,-0.13245c0.39222,-0.06365 0.68689,-0.22418 0.92715,-0.39735c0.15196,-0.10952 0.34667,-0.27498 0.39735,-0.39735c0.07168,-0.17305 0.22611,-0.30369 0.13245,-0.39735c-0.28097,-0.28097 -0.7947,0 -1.0596,0c-0.5298,0 -0.90141,0.19184 -1.45695,0.39735c-0.51219,0.18947 -1.0596,0.13245 -1.3245,0.13245c-0.13245,0 -0.27498,-0.05069 -0.39735,0c-0.17306,0.07168 -0.2649,0.2649 -0.66225,0.39735c-0.39735,0.13245 -0.7694,0.57238 -1.19205,0.7947c-0.63126,0.33206 -0.67289,0.57966 -1.19205,0.7947c-0.3671,0.15206 -0.62165,0.19322 -0.7947,0.2649c-0.24474,0.10137 -0.30369,0.03879 -0.39735,0.13245c-0.09366,0.09366 -0.06282,0.28468 -0.13245,0.39735c-0.1557,0.25194 -0.14541,0.3741 -0.39735,0.5298c-0.11267,0.06963 -0.32567,0.2243 -0.39735,0.39735c-0.05069,0.12237 -0.13245,0.13245 -0.2649,0.13245c-0.13245,0 -0.32567,0.0406 -0.39735,-0.13245c-0.10137,-0.24474 -0.04855,-0.53278 0,-0.92715c0.06673,-0.54202 0.25896,-0.99989 0.39735,-1.45695c0.07676,-0.25354 0,-0.66225 0,-0.7947c0,-0.13245 0,-0.2649 0,-0.39735c0,-0.13245 0,-0.2649 0,-0.39735c0,-0.39735 0,-0.7947 0,-0.92715c0,-0.39735 -0.02571,-0.77994 -0.39735,-1.45695c-0.14252,-0.25962 -0.2649,-0.39735 -0.2649,-0.66225c0,-0.13245 0,-0.2649 0,-0.39735c0,-0.13245 -0.08487,-0.27174 0,-0.7947c0.06709,-0.41343 0.20788,-0.67987 0.39735,-1.19205c0.30826,-0.83331 0.43993,-1.16676 0.66225,-1.5894c0.33206,-0.63126 0.31999,-0.89551 0.5298,-1.3245c0.18402,-0.37626 0.2243,-0.59057 0.39735,-0.66225c0.24474,-0.10137 0.2649,0.39735 0.2649,1.0596c0,0.66225 0.05634,1.3265 0,2.11921c-0.06639,0.93421 -0.37863,1.81344 -0.66225,2.78146c-0.22653,0.77316 -0.66096,1.42917 -0.7947,2.38411c-0.05511,0.39351 -0.5298,0.7947 -0.2649,1.0596c0.39735,0.39735 0.36494,-0.54729 0.66225,-1.0596c0.2397,-0.41304 0.38115,-0.80344 0.5298,-1.0596c0.2397,-0.41304 0.33649,-0.93424 0.39735,-1.19205c0.06805,-0.28825 0.13245,-0.5298 0.13245,-0.66225c0,-0.13245 -0.04985,-0.35431 0.13245,-0.39735c0.40764,-0.09623 0.64527,0.67411 0.92715,1.0596c0.50059,0.6846 0.97112,1.48733 1.19205,1.98675c0.1932,0.43673 0.46176,0.63891 0.5298,0.92715c0.03043,0.12891 0.03879,0.30369 0.13245,0.39735c0.09366,0.09366 0.31643,0.04557 0.66225,-0.39735c0.47529,-0.60874 0.62692,-0.95798 1.3245,-1.72185c0.50525,-0.55326 0.92715,-1.19205 1.19205,-1.45695c0.13245,-0.13245 0.22611,-0.30369 0.13245,-0.39735c-0.18731,-0.18731 -0.67908,-0.04257 -1.0596,0.13245c-0.70165,0.32272 -1.45695,0.7947 -2.1192,1.3245c-0.66225,0.5298 -1.0429,0.68283 -1.85431,1.3245c-0.51945,0.41079 -0.93754,0.76687 -1.3245,0.92715c-0.54725,0.22668 -0.7541,0.45812 -0.92715,0.5298c-0.12237,0.05069 0.00547,0.02024 0.5298,-0.13245c0.40214,-0.1171 1.17564,-0.4428 1.8543,-0.66225c0.51962,-0.16802 0.9039,-0.27786 1.0596,-0.5298c0.06963,-0.11267 0,-0.39735 -0.13245,-0.39735c-0.66225,0 -1.47589,-0.18642 -2.38411,0c-0.98811,0.20282 -1.60524,0.4996 -2.38411,0.92715c-0.67701,0.37164 -1.09916,0.5061 -1.3245,0.92715c-0.0625,0.11678 -0.18314,0.27498 -0.13245,0.39735c0.07168,0.17305 0.2649,0.13245 0.5298,0.13245c0.2649,0 0.66225,0 1.19205,0c0.66225,0 1.08985,0.15206 1.45695,0c0.17305,-0.07168 0.00479,-0.1171 -0.39735,0c-0.52433,0.15269 -0.88814,0.31075 -1.19205,0.5298c-0.24026,0.17317 -0.4892,0.32567 -0.66225,0.39735c-0.12237,0.05069 -0.05374,-0.29948 0.13245,-0.5298c0.53318,-0.65954 0.96207,-1.04179 1.72185,-1.58941c0.48053,-0.34634 0.98066,-0.71676 1.5894,-1.19205c0.44292,-0.34582 0.81415,-0.64414 1.0596,-0.92715c0.43391,-0.5003 0.51888,-0.8022 0.7947,-1.19205c0.3825,-0.54062 0.64254,-0.59408 0.92715,-1.19205c0.2347,-0.4931 0.39735,-0.92715 0.39735,-1.19205c0,-0.39735 0.06441,-0.63891 0.13245,-0.92715c0.06086,-0.25781 0,-0.39735 -0.13245,-0.39735c-0.39735,0 -0.61073,-0.00953 -0.92715,0.2649c-0.22374,0.19405 -0.39735,0.66225 -0.39735,0.92715c0,0.39735 0,0.7947 0,0.92715c0,0.2649 0.31476,0.38671 0.5298,-0.13245c0.15206,-0.36711 0.02571,-0.91239 0.39735,-1.58941c0.14252,-0.25962 0.2649,-0.92715 0.39735,-1.3245c0.2649,-0.7947 0.33026,-1.04352 0.39735,-1.45695c0.02122,-0.13074 0.18731,-0.47494 0,-0.66225c-0.18731,-0.18731 -0.66483,-0.05221 -1.19205,0c-0.67208,0.06655 -1.10546,0.62324 -1.3245,0.92715c-0.34634,0.48053 -0.21477,1.21331 -0.39735,1.98676c-0.06805,0.28824 -0.13245,0.66225 -0.13245,0.7947c0,0.13245 -0.13245,0.39735 0,0.39735c0.13245,0 0,-0.39735 0,-0.7947c0,-0.2649 -0.09129,-0.80533 0,-1.19205c0.13609,-0.57649 0.39735,-1.19205 0.39735,-1.45695c0,-0.39735 0,-0.66225 0,-0.7947c0,-0.13245 0.09366,-0.30369 0,-0.39735c-0.09366,-0.09366 -0.2649,0 -0.39735,0c-0.13245,0 -0.39371,0.21821 -0.5298,0.7947c-0.09129,0.38672 0,1.0596 0,1.98675c0,0.5298 -0.25343,1.11001 0,1.72186c0.07168,0.17305 0.07759,0.21004 0.2649,0.39735c0.09366,0.09366 0.39735,0 0.5298,0c0.13245,0 0.40444,0.06086 0.66225,0c0.28825,-0.06805 0.33063,-0.25269 0.39735,-0.7947c0.04855,-0.39437 0,-0.7947 0,-1.19205c0,-0.5298 0,-0.92715 0,-1.3245c0,-0.39735 -0.15538,-0.7752 -0.2649,-0.92715c-0.17317,-0.24026 -0.2649,-0.13245 -0.2649,0.2649c0,0.39735 0,0.92715 0,1.19205c0,0.39735 0,0.92715 0,1.19205c0,0.2649 -0.13245,0.66225 0,0.66225c0.13245,0 0,-0.92715 0,-1.45695c0,-0.7947 0.08486,-1.33134 0,-1.85431c-0.06709,-0.41344 -0.39141,-0.73499 -0.5298,-1.19205c-0.03838,-0.12677 0,-0.2649 0,-0.39735c0,-0.13245 0,-0.2649 -0.13245,-0.2649c-0.13245,0 -0.2649,0 -0.39735,0c-0.13245,0 -0.30446,0.13927 -0.5298,0c-0.25194,-0.15571 -0.19322,-0.35675 -0.2649,-0.5298c-0.05069,-0.12237 0.13245,-0.39735 0.39735,-0.39735c0.39735,0 0.5298,0 0.7947,0c0.13245,0 0.53151,-0.02122 0.66225,0c0.41344,0.06709 0.76781,0.29887 0.92715,0.39735c0.35629,0.2202 0.49079,0.31075 0.7947,0.5298c0.24026,0.17317 0.38166,0.42255 0.7947,0.66225c0.25616,0.14865 0.6317,0.43751 0.7947,0.5298c0.47522,0.26907 0.64938,0.2946 0.92715,0.39735c0.51219,0.18947 0.80767,0.24165 1.0596,0.39735c0.56334,0.34817 0.80344,0.5136 1.0596,0.66225c0.41304,0.2397 0.45812,0.35675 0.5298,0.5298c0.05069,0.12237 0.19322,0.2243 0.2649,0.39735c0.05069,0.12237 0,0.2649 0,0.39735c0,0.13245 0,0.2649 0,0.5298c0,0.2649 -0.08176,0.27498 -0.13245,0.39735c-0.14336,0.34611 -0.2649,0.39735 -0.2649,0.66225c0,0.13245 0.06086,0.27199 0,0.5298c-0.06804,0.28824 -0.13245,0.39735 -0.13245,0.5298l-0.13245,0.2649l-0.13245,0.13245l-0.13245,0.13245" id="svg_6" stroke-width="2" stroke="#6B6B6E" fill="none"/>
  <path d="m10.0861,16.34437c-0.13245,0 -0.27498,0.08177 -0.39735,0.13245c-0.17305,0.07168 -0.27498,0.08176 -0.39735,0.13245c-0.17305,0.07168 -0.18369,0.25399 -0.5298,0.39735c-0.12237,0.05069 -0.32567,0.2243 -0.39735,0.39735c-0.05069,0.12237 0.26832,0.17488 0.5298,0.13245c0.41344,-0.06709 0.55135,-0.49845 0.92715,-1.0596c0.26573,-0.3968 0.4432,-0.49079 0.66225,-0.7947c0.17317,-0.24026 0.10745,-0.60725 0,-0.5298c-0.33978,0.2449 -0.41646,0.65353 -0.5298,0.92715c-0.16029,0.38696 -0.46176,0.77136 -0.5298,1.0596c-0.06086,0.25781 -0.39735,0.66225 -0.2649,0.66225c0.13245,0 0,-0.39735 0,-0.7947c0,-0.13245 0.13245,-0.5298 0.13245,-0.7947l0,-0.13245l0,-0.13245" id="svg_7" stroke-width="2" stroke="#6B6B6E" fill="none"/>
 </g>
</svg>