<svg width="31" height="31" viewBox="0 0 31 31" fill="none" xmlns="http://www.w3.org/2000/svg">
<g id="uil:facebook">
<path id="Vector" d="M26.996 2.58337H4.00433C3.6275 2.58337 3.26611 2.73307 2.99965 2.99953C2.73319 3.26598 2.5835 3.62738 2.5835 4.00421V26.9959C2.5835 27.3727 2.73319 27.7341 2.99965 28.0006C3.26611 28.267 3.6275 28.4167 4.00433 28.4167H16.3785V18.4063H13.0202V14.5313H16.3785V11.625C16.3089 10.9427 16.3895 10.2535 16.6145 9.60557C16.8395 8.95768 17.2036 8.36687 17.6811 7.87457C18.1586 7.38227 18.7381 7.00041 19.3788 6.75576C20.0195 6.51112 20.706 6.40962 21.3902 6.45837C22.3955 6.45219 23.4004 6.50394 24.3997 6.61337V10.1009H22.346C20.7185 10.1009 20.4085 10.8759 20.4085 11.9996V14.4925H24.2835L23.7797 18.3675H20.4085V28.4167H26.996C27.1826 28.4167 27.3673 28.38 27.5397 28.3086C27.7121 28.2372 27.8687 28.1325 28.0007 28.0006C28.1326 27.8686 28.2373 27.712 28.3087 27.5396C28.3801 27.3672 28.4168 27.1825 28.4168 26.9959V4.00421C28.4168 3.81762 28.3801 3.63286 28.3087 3.46048C28.2373 3.28809 28.1326 3.13146 28.0007 2.99953C27.8687 2.86759 27.7121 2.76293 27.5397 2.69153C27.3673 2.62013 27.1826 2.58337 26.996 2.58337Z" fill="#3B5998"/>
</g>
</svg>
