<svg width="20" height="20" viewBox="0 0 20 20" fill="none" xmlns="http://www.w3.org/2000/svg">
<g id="ant-design:user-add-outlined">
<path id="Vector" d="M13.2481 12.5469C13.7208 12.293 14.2618 12.1484 14.8379 12.1484H14.8399C14.8985 12.1484 14.9258 12.0781 14.8829 12.0391C14.2837 11.5013 13.5992 11.067 12.8575 10.7539C12.8497 10.75 12.8418 10.748 12.834 10.7441C14.0469 9.86328 14.836 8.43164 14.836 6.81641C14.836 4.14062 12.6719 1.97266 10.002 1.97266C7.33208 1.97266 5.16997 4.14062 5.16997 6.81641C5.16997 8.43164 5.95903 9.86328 7.17388 10.7441C7.16606 10.748 7.15825 10.75 7.15044 10.7539C6.27739 11.123 5.49419 11.6523 4.82036 12.3281C4.15042 12.9968 3.61707 13.7896 3.25005 14.6621C2.88894 15.5165 2.69406 16.432 2.67583 17.3594C2.67531 17.3802 2.67897 17.401 2.68658 17.4204C2.6942 17.4398 2.70563 17.4575 2.72019 17.4724C2.73475 17.4873 2.75215 17.4992 2.77137 17.5073C2.79059 17.5154 2.81123 17.5195 2.83208 17.5195H4.002C4.08599 17.5195 4.1563 17.4512 4.15825 17.3672C4.19731 15.8594 4.80083 14.4473 5.86919 13.377C6.97271 12.2695 8.44146 11.6602 10.004 11.6602C11.1114 11.6602 12.1739 11.9668 13.0899 12.541C13.1134 12.5558 13.1404 12.5641 13.1682 12.5652C13.196 12.5662 13.2235 12.5599 13.2481 12.5469ZM10.004 10.1758C9.10942 10.1758 8.26763 9.82617 7.63286 9.19141C7.32055 8.8799 7.07295 8.50968 6.90435 8.10207C6.73574 7.69446 6.64944 7.25751 6.65044 6.81641C6.65044 5.91992 7.00005 5.07617 7.63286 4.44141C8.26567 3.80664 9.10747 3.45703 10.004 3.45703C10.9004 3.45703 11.7403 3.80664 12.375 4.44141C12.6874 4.75291 12.935 5.12313 13.1036 5.53074C13.2722 5.93836 13.3585 6.3753 13.3575 6.81641C13.3575 7.71289 13.0079 8.55664 12.375 9.19141C11.7403 9.82617 10.8985 10.1758 10.004 10.1758ZM17.1876 14.8242H15.5469V13.1836C15.5469 13.0977 15.4766 13.0273 15.3907 13.0273H14.2969C14.211 13.0273 14.1407 13.0977 14.1407 13.1836V14.8242H12.5C12.4141 14.8242 12.3438 14.8945 12.3438 14.9805V16.0742C12.3438 16.1602 12.4141 16.2305 12.5 16.2305H14.1407V17.8711C14.1407 17.957 14.211 18.0273 14.2969 18.0273H15.3907C15.4766 18.0273 15.5469 17.957 15.5469 17.8711V16.2305H17.1876C17.2735 16.2305 17.3438 16.1602 17.3438 16.0742V14.9805C17.3438 14.8945 17.2735 14.8242 17.1876 14.8242Z" fill="#717171"/>
</g>
</svg>
