<svg width="20" height="20" viewBox="0 0 20 20" fill="none" xmlns="http://www.w3.org/2000/svg">
<g id="mdi:post-it-note-add-outline">
<path id="Vector" d="M4.16667 15.8333V4.16667H10V10H15.8333V10.8333C16.4167 10.8333 16.975 10.9417 17.5 11.125V7.5L12.5 2.5H4.16667C3.24167 2.5 2.5 3.24167 2.5 4.16667V15.8333C2.5 16.2754 2.67559 16.6993 2.98816 17.0118C3.30072 17.3244 3.72464 17.5 4.16667 17.5H11.125C10.9417 16.975 10.8333 16.4167 10.8333 15.8333H4.16667ZM11.6667 3.75L16.25 8.33333H11.6667V3.75ZM19.1667 15V16.6667H16.6667V19.1667H15V16.6667H12.5V15H15V12.5H16.6667V15H19.1667Z" fill="#717171"/>
</g>
</svg>
