<svg width="20" height="20" viewBox="0 0 20 20" fill="none" xmlns="http://www.w3.org/2000/svg">
<g id="ic:round-logout">
<path id="Vector" d="M4.16667 4.16667H9.16667C9.625 4.16667 10 3.79167 10 3.33333C10 2.875 9.625 2.5 9.16667 2.5H4.16667C3.25 2.5 2.5 3.25 2.5 4.16667V15.8333C2.5 16.75 3.25 17.5 4.16667 17.5H9.16667C9.625 17.5 10 17.125 10 16.6667C10 16.2083 9.625 15.8333 9.16667 15.8333H4.16667V4.16667Z" fill="#B2B2B2"/>
<path id="Vector_2" d="M17.2083 9.70831L14.8833 7.38331C14.8254 7.32376 14.751 7.28287 14.6696 7.26586C14.5883 7.24885 14.5037 7.2565 14.4268 7.28782C14.3498 7.31914 14.284 7.37271 14.2376 7.44168C14.1913 7.51065 14.1666 7.59188 14.1667 7.67497V9.16664H8.33333C7.875 9.16664 7.5 9.54164 7.5 9.99997C7.5 10.4583 7.875 10.8333 8.33333 10.8333H14.1667V12.325C14.1667 12.7 14.6167 12.8833 14.875 12.6166L17.2 10.2916C17.3667 10.1333 17.3667 9.86664 17.2083 9.70831Z" fill="#B2B2B2"/>
</g>
</svg>
