<svg width="20" height="20" viewBox="0 0 20 20" fill="none" xmlns="http://www.w3.org/2000/svg">
<g id="material-symbols:settings-outline">
<path id="Vector" d="M7.70833 18.3333L7.375 15.6666C7.19444 15.5972 7.02417 15.5138 6.86417 15.4166C6.70417 15.3194 6.54806 15.2152 6.39583 15.1041L3.91667 16.1458L1.625 12.1875L3.77083 10.5625C3.75694 10.4652 3.75 10.3713 3.75 10.2808V9.71913C3.75 9.62857 3.75694 9.53468 3.77083 9.43746L1.625 7.81246L3.91667 3.85413L6.39583 4.89579C6.54861 4.78468 6.70833 4.68051 6.875 4.58329C7.04167 4.48607 7.20833 4.40274 7.375 4.33329L7.70833 1.66663H12.2917L12.625 4.33329C12.8056 4.40274 12.9758 4.48607 13.1358 4.58329C13.2958 4.68051 13.4519 4.78468 13.6042 4.89579L16.0833 3.85413L18.375 7.81246L16.2292 9.43746C16.2431 9.53468 16.25 9.62857 16.25 9.71913V10.2808C16.25 10.3713 16.2361 10.4652 16.2083 10.5625L18.3542 12.1875L16.0625 16.1458L13.6042 15.1041C13.4514 15.2152 13.2917 15.3194 13.125 15.4166C12.9583 15.5138 12.7917 15.5972 12.625 15.6666L12.2917 18.3333H7.70833ZM10.0417 12.9166C10.8472 12.9166 11.5347 12.6319 12.1042 12.0625C12.6736 11.493 12.9583 10.8055 12.9583 9.99996C12.9583 9.1944 12.6736 8.5069 12.1042 7.93746C11.5347 7.36801 10.8472 7.08329 10.0417 7.08329C9.22222 7.08329 8.53111 7.36801 7.96833 7.93746C7.40556 8.5069 7.12444 9.1944 7.125 9.99996C7.125 10.8055 7.40611 11.493 7.96833 12.0625C8.53056 12.6319 9.22167 12.9166 10.0417 12.9166ZM10.0417 11.25C9.69444 11.25 9.39917 11.1283 9.15583 10.885C8.9125 10.6416 8.79111 10.3466 8.79167 9.99996C8.79167 9.65274 8.91333 9.35746 9.15667 9.11413C9.4 8.87079 9.695 8.7494 10.0417 8.74996C10.3889 8.74996 10.6842 8.87163 10.9275 9.11496C11.1708 9.35829 11.2922 9.65329 11.2917 9.99996C11.2917 10.3472 11.17 10.6425 10.9267 10.8858C10.6833 11.1291 10.3883 11.2505 10.0417 11.25ZM9.16667 16.6666H10.8125L11.1042 14.4583C11.5347 14.3472 11.9342 14.1838 12.3025 13.9683C12.6708 13.7527 13.0075 13.4925 13.3125 13.1875L15.375 14.0416L16.1875 12.625L14.3958 11.2708C14.4653 11.0763 14.5139 10.8716 14.5417 10.6566C14.5694 10.4416 14.5833 10.2227 14.5833 9.99996C14.5833 9.77774 14.5694 9.55913 14.5417 9.34413C14.5139 9.12913 14.4653 8.92413 14.3958 8.72913L16.1875 7.37496L15.375 5.95829L13.3125 6.83329C13.0069 6.51385 12.6703 6.24663 12.3025 6.03163C11.9347 5.81663 11.5353 5.65329 11.1042 5.54163L10.8333 3.33329H9.1875L8.89583 5.54163C8.46528 5.65274 8.06611 5.81607 7.69833 6.03163C7.33056 6.24718 6.99361 6.50746 6.6875 6.81246L4.625 5.95829L3.8125 7.37496L5.60417 8.70829C5.53472 8.91663 5.48611 9.12496 5.45833 9.33329C5.43056 9.54163 5.41667 9.76385 5.41667 9.99996C5.41667 10.2222 5.43056 10.4375 5.45833 10.6458C5.48611 10.8541 5.53472 11.0625 5.60417 11.2708L3.8125 12.625L4.625 14.0416L6.6875 13.1666C6.99306 13.4861 7.33 13.7536 7.69833 13.9691C8.06667 14.1847 8.46583 14.3477 8.89583 14.4583L9.16667 16.6666Z" fill="#717171"/>
</g>
</svg>
